solid Top of one print burger box small skp
facet normal -0.499832931571807 0.0 0.866121839302262
   outer loop
      vertex -3.13504732496176 21.2775336875757 16.1335592978859
      vertex -3.97650201428061 21.8516136875758 15.6479616082053
      vertex -3.97650201428061 21.2775336875757 15.6479616082053
   endloop
endfacet
facet normal -0.499832931571807 0.0 0.866121839302262
   outer loop
      vertex -3.97650201428061 21.8516136875758 15.6479616082053
      vertex -3.13504732496176 21.2775336875757 16.1335592978859
      vertex -3.13504732496176 21.8516136875758 16.1335592978859
   endloop
endfacet
facet normal 0.0 1.0 0.0
   outer loop
      vertex -5.34500459428958 21.2775336875757 18.0193339144679
      vertex -3.13504732496176 21.2775336875757 16.1335592978859
      vertex -3.97650201428061 21.2775336875757 15.6479616082053
   endloop
endfacet
facet normal 0.0 1.0 0.0
   outer loop
      vertex -3.13504732496176 21.2775336875757 16.1335592978859
      vertex -5.34500459428958 21.2775336875757 18.0193339144679
      vertex -4.50354990497058 21.2775336875757 18.5049316041485
   endloop
endfacet
facet normal 1.0 0.0 -1.41906525893093e-013
   outer loop
      vertex -38.5248843448926 21.8516136875758 21.2222136083898
      vertex -38.5248843448926 21.3023652437653 21.6196536083898
      vertex -38.5248843448926 21.3023652437653 21.2222136083898
   endloop
endfacet
facet normal 1.0 0.0 -1.41906525893093e-013
   outer loop
      vertex -38.5248843448926 21.3023652437653 21.6196536083898
      vertex -38.5248843448926 21.8516136875758 21.2222136083898
      vertex -38.5248843448926 21.8516136875758 21.6196536083898
   endloop
endfacet
facet normal -1.0 0.0 3.92971917857853e-014
   outer loop
      vertex -11.8452248770081 21.8516136875758 21.7962936083897
      vertex -11.8452248770081 21.3437736875757 21.2222136083898
      vertex -11.8452248770081 21.3437736875757 21.7962936083897
   endloop
endfacet
facet normal -1.0 0.0 3.92971917857853e-014
   outer loop
      vertex -11.8452248770081 21.3437736875757 21.2222136083898
      vertex -11.8452248770081 21.8516136875758 21.7962936083897
      vertex -11.8452248770081 21.8516136875758 21.2222136083898
   endloop
endfacet
facet normal 0.0 -1.0 0.0
   outer loop
      vertex -7.19336434489255 1.35634737515151 21.2222136083898
      vertex -43.1778139151734 1.35634737515151 11.3788963101615
      vertex -1.51285391517335 1.35634737515151 11.3788963101615
   endloop
endfacet
facet normal 0.0 -1.0 0.0
   outer loop
      vertex -43.1778139151734 1.35634737515151 11.3788963101615
      vertex -7.19336434489255 1.35634737515151 21.2222136083898
      vertex -38.5248843448926 1.35634737515151 21.2222136083898
   endloop
endfacet
facet normal 0.904082024469781 1.43122084227735e-017 -0.427358974435571
   outer loop
      vertex -43.1778139151734 42.34688 11.3788963101615
      vertex -42.3485746135667 21.8516136875758 13.133160035538
      vertex -43.1778139151734 21.8516136875758 11.3788963101615
   endloop
endfacet
facet normal 0.904082024469781 1.43122084227735e-017 -0.427358974435571
   outer loop
      vertex -42.3485746135667 21.8516136875758 13.133160035538
      vertex -43.1778139151734 42.34688 11.3788963101615
      vertex -42.2333570445899 21.8516136875758 13.3769039118721
   endloop
endfacet
facet normal 0.904082024469781 1.43122084227735e-017 -0.427358974435571
   outer loop
      vertex -42.2333570445899 21.8516136875758 13.3769039118721
      vertex -43.1778139151734 42.34688 11.3788963101615
      vertex -41.5256505829246 21.8516136875758 14.8740637443941
   endloop
endfacet
facet normal 0.904082024469781 1.43122084227735e-017 -0.427358974435571
   outer loop
      vertex -41.5256505829246 21.8516136875758 14.8740637443941
      vertex -43.1778139151734 42.34688 11.3788963101615
      vertex -41.3898378274533 21.8516136875758 15.1613769360204
   endloop
endfacet
facet normal 0.904082024469781 1.43122084227735e-017 -0.427358974435571
   outer loop
      vertex -41.3898378274533 21.8516136875758 15.1613769360204
      vertex -43.1778139151734 42.34688 11.3788963101615
      vertex -40.1914548857001 21.8516136875758 17.6965675857576
   endloop
endfacet
facet normal 0.904082024469781 1.43122084227735e-017 -0.427358974435571
   outer loop
      vertex -40.1914548857001 21.8516136875758 17.6965675857576
      vertex -43.1778139151734 42.34688 11.3788963101615
      vertex -40.0440942159341 21.8516136875758 18.0083105012427
   endloop
endfacet
facet normal 0.904082024469781 1.43122084227735e-017 -0.427358974435571
   outer loop
      vertex -40.0440942159341 21.8516136875758 18.0083105012427
      vertex -43.1778139151734 42.34688 11.3788963101615
      vertex -38.5248843448926 21.8516136875758 21.2222136083898
   endloop
endfacet
facet normal 0.904082024469781 1.43122084227735e-017 -0.427358974435571
   outer loop
      vertex -38.5248843448926 21.8516136875758 21.2222136083898
      vertex -43.1778139151734 42.34688 11.3788963101615
      vertex -38.5248843448926 42.34688 21.2222136083898
   endloop
endfacet
facet normal 0.904082024469781 1.43122084227735e-017 -0.427358974435571
   outer loop
      vertex -40.1914548857001 21.8516136875758 17.6965675857576
      vertex -40.0440942159341 21.2996136875757 18.0083105012427
      vertex -40.1914548857001 21.2996136875757 17.6965675857576
   endloop
endfacet
facet normal 0.904082024469781 1.43122084227735e-017 -0.427358974435571
   outer loop
      vertex -40.0440942159341 21.2996136875757 18.0083105012427
      vertex -40.1914548857001 21.8516136875758 17.6965675857576
      vertex -40.0440942159341 21.8516136875758 18.0083105012427
   endloop
endfacet
facet normal 0.904082024469781 1.43122084227735e-017 -0.427358974435571
   outer loop
      vertex -41.5256505829246 21.8516136875758 14.8740637443941
      vertex -41.3898378274533 21.2996136875757 15.1613769360204
      vertex -41.5256505829246 21.2996136875757 14.8740637443941
   endloop
endfacet
facet normal 0.904082024469781 1.43122084227735e-017 -0.427358974435571
   outer loop
      vertex -41.3898378274533 21.2996136875757 15.1613769360204
      vertex -41.5256505829246 21.8516136875758 14.8740637443941
      vertex -41.3898378274533 21.8516136875758 15.1613769360204
   endloop
endfacet
facet normal 0.904082024469781 1.43122084227735e-017 -0.427358974435571
   outer loop
      vertex -43.1778139151734 21.3075255763397 11.3788963101615
      vertex -38.5248843448926 1.35634737515151 21.2222136083898
      vertex -43.1778139151734 1.35634737515151 11.3788963101615
   endloop
endfacet
facet normal 0.904082024469781 1.43122084227735e-017 -0.427358974435571
   outer loop
      vertex -38.5248843448926 1.35634737515151 21.2222136083898
      vertex -43.1778139151734 21.3075255763397 11.3788963101615
      vertex -42.2333570445899 21.2996136875757 13.3769039118721
   endloop
endfacet
facet normal 0.904082024469781 1.43122084227735e-017 -0.427358974435571
   outer loop
      vertex -42.2333570445899 21.2996136875757 13.3769039118721
      vertex -43.1778139151734 21.3075255763397 11.3788963101615
      vertex -42.3485746135667 21.3075255763397 13.133160035538
   endloop
endfacet
facet normal 0.904082024469781 1.43122084227735e-017 -0.427358974435571
   outer loop
      vertex -42.2333570445899 21.2996136875757 13.3769039118721
      vertex -42.3485746135667 21.3075255763397 13.133160035538
      vertex -42.2333570445899 21.8516136875758 13.3769039118721
   endloop
endfacet
facet normal 0.904082024469781 1.43122084227735e-017 -0.427358974435571
   outer loop
      vertex -42.2333570445899 21.8516136875758 13.3769039118721
      vertex -42.3485746135667 21.3075255763397 13.133160035538
      vertex -42.3485746135667 21.8516136875758 13.133160035538
   endloop
endfacet
facet normal 0.904082024469781 1.43122084227735e-017 -0.427358974435571
   outer loop
      vertex -38.5248843448926 1.35634737515151 21.2222136083898
      vertex -40.0440942159341 21.2996136875757 18.0083105012427
      vertex -38.5248843448926 21.3023652437653 21.2222136083898
   endloop
endfacet
facet normal 0.904082024469781 1.43122084227735e-017 -0.427358974435571
   outer loop
      vertex -40.0440942159341 21.2996136875757 18.0083105012427
      vertex -38.5248843448926 1.35634737515151 21.2222136083898
      vertex -42.2333570445899 21.2996136875757 13.3769039118721
   endloop
endfacet
facet normal 0.904082024469781 1.43122084227735e-017 -0.427358974435571
   outer loop
      vertex -40.0440942159341 21.2996136875757 18.0083105012427
      vertex -42.2333570445899 21.2996136875757 13.3769039118721
      vertex -41.5256505829246 21.2996136875757 14.8740637443941
   endloop
endfacet
facet normal 0.904082024469781 1.43122084227735e-017 -0.427358974435571
   outer loop
      vertex -40.0440942159341 21.2996136875757 18.0083105012427
      vertex -41.5256505829246 21.2996136875757 14.8740637443941
      vertex -41.3898378274533 21.2996136875757 15.1613769360204
   endloop
endfacet
facet normal 0.904082024469781 1.43122084227735e-017 -0.427358974435571
   outer loop
      vertex -40.0440942159341 21.2996136875757 18.0083105012427
      vertex -41.3898378274533 21.2996136875757 15.1613769360204
      vertex -40.1914548857001 21.2996136875757 17.6965675857576
   endloop
endfacet
facet normal 0.0 -1.0 0.0
   outer loop
      vertex -30.4860763055017 21.8516136875758 21.9287736083897
      vertex -33.6655963055017 21.8516136875758 21.2222136083898
      vertex -30.4860763055017 21.8516136875758 21.2222136083897
   endloop
endfacet
facet normal 0.0 -1.0 0.0
   outer loop
      vertex -33.6655963055017 21.8516136875758 21.2222136083898
      vertex -30.4860763055017 21.8516136875758 21.9287736083897
      vertex -33.6655963055017 21.8516136875758 21.9287736083898
   endloop
endfacet
facet normal -1.0 0.0 -1.59644841629752e-014
   outer loop
      vertex -30.4860763055017 21.8516136875758 21.9287736083897
      vertex -30.4860763055017 21.1892136875757 21.2222136083897
      vertex -30.4860763055017 21.1892136875757 21.9287736083897
   endloop
endfacet
facet normal -1.0 0.0 -1.59644841629752e-014
   outer loop
      vertex -30.4860763055017 21.1892136875757 21.2222136083897
      vertex -30.4860763055017 21.8516136875758 21.9287736083897
      vertex -30.4860763055017 21.8516136875758 21.2222136083897
   endloop
endfacet
facet normal 0.49983293157174 0.0 -0.8661218393023
   outer loop
      vertex -4.50354990497058 21.8516136875758 18.5049316041485
      vertex -5.34500459428958 21.2775336875757 18.0193339144679
      vertex -5.34500459428958 21.8516136875758 18.0193339144679
   endloop
endfacet
facet normal 0.49983293157174 0.0 -0.8661218393023
   outer loop
      vertex -5.34500459428958 21.2775336875757 18.0193339144679
      vertex -4.50354990497058 21.8516136875758 18.5049316041485
      vertex -4.50354990497058 21.2775336875757 18.5049316041485
   endloop
endfacet
facet normal -0.866121839302301 0.0 -0.499832931571739
   outer loop
      vertex -3.20714833925124 21.8516136875758 15.5958761643578
      vertex -2.2359529598901 21.2775336875757 13.9129667857199
      vertex -3.20714833925124 21.2775336875757 15.5958761643578
   endloop
endfacet
facet normal -0.866121839302301 0.0 -0.499832931571739
   outer loop
      vertex -2.2359529598901 21.2775336875757 13.9129667857199
      vertex -3.20714833925124 21.8516136875758 15.5958761643578
      vertex -2.2359529598901 21.8516136875758 13.9129667857199
   endloop
endfacet
facet normal 0.0 -1.0 0.0
   outer loop
      vertex -4.65526639373796 21.8516136875758 18.8120041370066
      vertex -7.19336434489255 21.8516136875758 21.2222136083898
      vertex -5.51584505326865 21.8516136875758 18.315370136197
   endloop
endfacet
facet normal 0.0 -1.0 0.0
   outer loop
      vertex -7.19336434489255 21.8516136875758 21.2222136083898
      vertex -4.65526639373796 21.8516136875758 18.8120041370066
      vertex -6.33278568536183 21.8516136875758 21.7188476091995
   endloop
endfacet
facet normal -1.59644841629748e-014 0.0 -1.0
   outer loop
      vertex -30.4860763055017 21.8516136875758 21.9287736083897
      vertex -33.6655963055017 21.1892136875757 21.9287736083898
      vertex -33.6655963055017 21.8516136875758 21.9287736083898
   endloop
endfacet
facet normal -1.59644841629748e-014 0.0 -1.0
   outer loop
      vertex -33.6655963055017 21.1892136875757 21.9287736083898
      vertex -30.4860763055017 21.8516136875758 21.9287736083897
      vertex -30.4860763055017 21.1892136875757 21.9287736083897
   endloop
endfacet
facet normal -0.427358974435645 0.0 -0.904082024469746
   outer loop
      vertex -41.5256505829246 21.8516136875758 14.8740637443941
      vertex -41.8250825494289 21.2996136875757 15.0156050367271
      vertex -41.8250825494289 21.8516136875758 15.0156050367271
   endloop
endfacet
facet normal -0.427358974435645 0.0 -0.904082024469746
   outer loop
      vertex -41.8250825494289 21.2996136875757 15.0156050367271
      vertex -41.5256505829246 21.8516136875758 14.8740637443941
      vertex -41.5256505829246 21.2996136875757 14.8740637443941
   endloop
endfacet
facet normal -1.64706285826006e-014 0.0 -1.0
   outer loop
      vertex -34.4158003933156 21.8516136875758 21.6196536083898
      vertex -38.5248843448926 21.3023652437653 21.6196536083898
      vertex -38.5248843448926 21.8516136875758 21.6196536083898
   endloop
endfacet
facet normal -1.64706285826006e-014 0.0 -1.0
   outer loop
      vertex -38.5248843448926 21.3023652437653 21.6196536083898
      vertex -34.4158003933156 21.8516136875758 21.6196536083898
      vertex -34.4158003933156 21.3023652437653 21.6196536083898
   endloop
endfacet
facet normal 0.0 -1.0 0.0
   outer loop
      vertex -34.4158003933156 21.8516136875758 21.6196536083898
      vertex -38.5248843448926 21.8516136875758 21.2222136083898
      vertex -34.4158003933156 21.8516136875758 21.2222136083897
   endloop
endfacet
facet normal 0.0 -1.0 0.0
   outer loop
      vertex -38.5248843448926 21.8516136875758 21.2222136083898
      vertex -34.4158003933156 21.8516136875758 21.6196536083898
      vertex -38.5248843448926 21.8516136875758 21.6196536083898
   endloop
endfacet
facet normal 0.0 1.0 0.0
   outer loop
      vertex -39.1314193221103 43.71584 22.6617763101614
      vertex 0.0 43.71584 11.3788963101614
      vertex -44.3366400000001 43.71584 11.3788963101614
   endloop
endfacet
facet normal 0.0 1.0 0.0
   outer loop
      vertex 0.0 43.71584 11.3788963101614
      vertex -39.1314193221103 43.71584 22.6617763101614
      vertex -6.0935546511501 43.71584 22.6617763101614
   endloop
endfacet
facet normal 0.0 -1.0 0.0
   outer loop
      vertex -15.6700064220409 21.8516136875758 21.2222136083898
      vertex -18.9378464220409 21.8516136875758 21.8625336083898
      vertex -18.9378464220408 21.8516136875758 21.2222136083897
   endloop
endfacet
facet normal 0.0 -1.0 0.0
   outer loop
      vertex -18.9378464220409 21.8516136875758 21.8625336083898
      vertex -15.6700064220409 21.8516136875758 21.2222136083898
      vertex -15.6700064220409 21.8516136875758 21.8625336083898
   endloop
endfacet
facet normal -4.73021752977042e-015 0.0 -1.0
   outer loop
      vertex -26.3592656317286 21.8516136875758 21.9729336083897
      vertex -29.9362256317285 21.2333736875757 21.9729336083897
      vertex -29.9362256317285 21.8516136875758 21.9729336083897
   endloop
endfacet
facet normal -4.73021752977042e-015 0.0 -1.0
   outer loop
      vertex -29.9362256317285 21.2333736875757 21.9729336083897
      vertex -26.3592656317286 21.8516136875758 21.9729336083897
      vertex -26.3592656317286 21.2333736875757 21.9729336083897
   endloop
endfacet
facet normal 0.0 -1.0 0.0
   outer loop
      vertex -26.3592656317286 21.8516136875758 21.2222136083898
      vertex -29.9362256317285 21.8516136875758 21.9729336083897
      vertex -29.9362256317285 21.8516136875758 21.2222136083897
   endloop
endfacet
facet normal 0.0 -1.0 0.0
   outer loop
      vertex -29.9362256317285 21.8516136875758 21.9729336083897
      vertex -26.3592656317286 21.8516136875758 21.2222136083898
      vertex -26.3592656317286 21.8516136875758 21.9729336083897
   endloop
endfacet
facet normal -1.0 0.0 0.0
   outer loop
      vertex -26.3592656317286 21.8516136875758 21.9729336083897
      vertex -26.3592656317286 21.2333736875757 21.2222136083898
      vertex -26.3592656317286 21.2333736875757 21.9729336083897
   endloop
endfacet
facet normal -1.0 0.0 0.0
   outer loop
      vertex -26.3592656317286 21.2333736875757 21.2222136083898
      vertex -26.3592656317286 21.8516136875758 21.9729336083897
      vertex -26.3592656317286 21.8516136875758 21.2222136083898
   endloop
endfacet
facet normal -0.427358974435576 0.0 -0.904082024469778
   outer loop
      vertex -42.3485746135667 21.8516136875758 13.133160035538
      vertex -42.6679687111714 21.3075255763397 13.2841374140266
      vertex -42.6679687111714 21.8516136875758 13.2841374140266
   endloop
endfacet
facet normal -0.427358974435576 0.0 -0.904082024469778
   outer loop
      vertex -42.6679687111714 21.3075255763397 13.2841374140266
      vertex -42.3485746135667 21.8516136875758 13.133160035538
      vertex -42.3485746135667 21.3075255763397 13.133160035538
   endloop
endfacet
facet normal 0.0 1.0 0.0
   outer loop
      vertex -29.9362256317285 21.2333736875757 21.9729336083897
      vertex -26.3592656317286 21.2333736875757 21.2222136083898
      vertex -29.9362256317285 21.2333736875757 21.2222136083897
   endloop
endfacet
facet normal 0.0 1.0 0.0
   outer loop
      vertex -26.3592656317286 21.2333736875757 21.2222136083898
      vertex -29.9362256317285 21.2333736875757 21.9729336083897
      vertex -26.3592656317286 21.2333736875757 21.9729336083897
   endloop
endfacet
facet normal 1.0 0.0 -1.50253968592705e-014
   outer loop
      vertex -29.9362256317285 21.8516136875758 21.2222136083897
      vertex -29.9362256317285 21.2333736875757 21.9729336083897
      vertex -29.9362256317285 21.2333736875757 21.2222136083897
   endloop
endfacet
facet normal 1.0 0.0 -1.50253968592705e-014
   outer loop
      vertex -29.9362256317285 21.2333736875757 21.9729336083897
      vertex -29.9362256317285 21.8516136875758 21.2222136083897
      vertex -29.9362256317285 21.8516136875758 21.9729336083897
   endloop
endfacet
facet normal 0.427358974435714 0.0 0.904082024469713
   outer loop
      vertex -43.1778139151734 21.3075255763397 11.3788963101615
      vertex -43.497208012778 21.8516136875758 11.5298736886501
      vertex -43.497208012778 21.3075255763397 11.5298736886501
   endloop
endfacet
facet normal 0.427358974435714 0.0 0.904082024469713
   outer loop
      vertex -43.497208012778 21.8516136875758 11.5298736886501
      vertex -43.1778139151734 21.3075255763397 11.3788963101615
      vertex -43.1778139151734 21.8516136875758 11.3788963101615
   endloop
endfacet
facet normal -0.427358974435678 0.0 -0.90408202446973
   outer loop
      vertex -38.5248843448926 21.8516136875758 21.2222136083898
      vertex -38.8442784424973 21.3023652437653 21.3731909868784
      vertex -38.8442784424973 21.8516136875758 21.3731909868784
   endloop
endfacet
facet normal -0.427358974435678 0.0 -0.90408202446973
   outer loop
      vertex -38.8442784424973 21.3023652437653 21.3731909868784
      vertex -38.5248843448926 21.8516136875758 21.2222136083898
      vertex -38.5248843448926 21.3023652437653 21.2222136083898
   endloop
endfacet
facet normal 0.0 1.0 0.0
   outer loop
      vertex -33.6655963055017 21.1892136875757 21.2222136083898
      vertex -30.4860763055017 21.1892136875757 21.9287736083897
      vertex -30.4860763055017 21.1892136875757 21.2222136083897
   endloop
endfacet
facet normal 0.0 1.0 0.0
   outer loop
      vertex -30.4860763055017 21.1892136875757 21.9287736083897
      vertex -33.6655963055017 21.1892136875757 21.2222136083898
      vertex -33.6655963055017 21.1892136875757 21.9287736083898
   endloop
endfacet
facet normal 0.42735897443564 0.0 0.904082024469748
   outer loop
      vertex -41.3898378274533 21.2996136875757 15.1613769360204
      vertex -41.7092319250579 21.8516136875758 15.312354314509
      vertex -41.7092319250579 21.2996136875757 15.312354314509
   endloop
endfacet
facet normal 0.42735897443564 0.0 0.904082024469748
   outer loop
      vertex -41.7092319250579 21.8516136875758 15.312354314509
      vertex -41.3898378274533 21.2996136875757 15.1613769360204
      vertex -41.3898378274533 21.8516136875758 15.1613769360204
   endloop
endfacet
facet normal 0.879879331148841 0.0 0.47519718287998
   outer loop
      vertex 0.0 43.71584 11.3788963101614
      vertex -6.0935546511501 0.0 22.6617763101614
      vertex 0.0 0.0 11.3788963101614
   endloop
endfacet
facet normal 0.879879331148841 0.0 0.47519718287998
   outer loop
      vertex -6.0935546511501 0.0 22.6617763101614
      vertex 0.0 43.71584 11.3788963101614
      vertex -6.0935546511501 43.71584 22.6617763101614
   endloop
endfacet
facet normal 0.0 1.0 0.0
   outer loop
      vertex -38.5248843448926 21.3023652437653 21.2222136083898
      vertex -34.4158003933156 21.3023652437653 21.6196536083898
      vertex -34.4158003933156 21.3023652437653 21.2222136083897
   endloop
endfacet
facet normal 0.0 1.0 0.0
   outer loop
      vertex -34.4158003933156 21.3023652437653 21.6196536083898
      vertex -38.5248843448926 21.3023652437653 21.2222136083898
      vertex -38.5248843448926 21.3023652437653 21.6196536083898
   endloop
endfacet
facet normal -1.0 0.0 1.13525220714486e-013
   outer loop
      vertex -34.4158003933156 21.8516136875758 21.6196536083898
      vertex -34.4158003933156 21.3023652437653 21.2222136083897
      vertex -34.4158003933156 21.3023652437653 21.6196536083898
   endloop
endfacet
facet normal -1.0 0.0 1.13525220714486e-013
   outer loop
      vertex -34.4158003933156 21.3023652437653 21.2222136083897
      vertex -34.4158003933156 21.8516136875758 21.6196536083898
      vertex -34.4158003933156 21.8516136875758 21.2222136083897
   endloop
endfacet
facet normal 0.0 1.0 0.0
   outer loop
      vertex -22.4736616257115 21.2775336875757 21.8846136083898
      vertex -19.4487016257115 21.2775336875757 21.2222136083898
      vertex -22.4736616257115 21.2775336875757 21.2222136083897
   endloop
endfacet
facet normal 0.0 1.0 0.0
   outer loop
      vertex -19.4487016257115 21.2775336875757 21.2222136083898
      vertex -22.4736616257115 21.2775336875757 21.8846136083898
      vertex -19.4487016257114 21.2775336875757 21.8846136083898
   endloop
endfacet
facet normal 1.0 0.0 -6.81151324286864e-014
   outer loop
      vertex -22.4736616257115 21.8516136875758 21.2222136083897
      vertex -22.4736616257115 21.2775336875757 21.8846136083898
      vertex -22.4736616257115 21.2775336875757 21.2222136083897
   endloop
endfacet
facet normal 1.0 0.0 -6.81151324286864e-014
   outer loop
      vertex -22.4736616257115 21.2775336875757 21.8846136083898
      vertex -22.4736616257115 21.8516136875758 21.2222136083897
      vertex -22.4736616257115 21.8516136875758 21.8846136083898
   endloop
endfacet
facet normal 0.0 -1.0 0.0
   outer loop
      vertex -40.1914548857001 21.8516136875758 17.6965675857576
      vertex -41.7092319250579 21.8516136875758 15.312354314509
      vertex -41.3898378274533 21.8516136875758 15.1613769360204
   endloop
endfacet
facet normal 0.0 -1.0 0.0
   outer loop
      vertex -41.7092319250579 21.8516136875758 15.312354314509
      vertex -40.1914548857001 21.8516136875758 17.6965675857576
      vertex -40.5108489833048 21.8516136875758 17.8475449642462
   endloop
endfacet
facet normal 0.0 1.0 0.0
   outer loop
      vertex -43.497208012778 21.3075255763397 11.5298736886501
      vertex -42.3485746135667 21.3075255763397 13.133160035538
      vertex -43.1778139151734 21.3075255763397 11.3788963101615
   endloop
endfacet
facet normal 0.0 1.0 0.0
   outer loop
      vertex -42.3485746135667 21.3075255763397 13.133160035538
      vertex -43.497208012778 21.3075255763397 11.5298736886501
      vertex -42.6679687111714 21.3075255763397 13.2841374140266
   endloop
endfacet
facet normal 0.0 -1.0 0.0
   outer loop
      vertex -7.19336434489255 21.8516136875758 21.2222136083898
      vertex -11.4771975912138 21.8516136875758 21.8404536083898
      vertex -11.4771975912138 21.8516136875758 21.2222136083898
   endloop
endfacet
facet normal 0.0 -1.0 0.0
   outer loop
      vertex -11.4771975912138 21.8516136875758 21.8404536083898
      vertex -7.19336434489255 21.8516136875758 21.2222136083898
      vertex -7.19336434489255 21.8516136875758 21.8404536083898
   endloop
endfacet
facet normal 0.0 -1.0 0.0
   outer loop
      vertex -19.4487016257115 21.8516136875758 21.2222136083898
      vertex -22.4736616257115 21.8516136875758 21.8846136083898
      vertex -22.4736616257115 21.8516136875758 21.2222136083897
   endloop
endfacet
facet normal 0.0 -1.0 0.0
   outer loop
      vertex -22.4736616257115 21.8516136875758 21.8846136083898
      vertex -19.4487016257115 21.8516136875758 21.2222136083898
      vertex -19.4487016257114 21.8516136875758 21.8846136083898
   endloop
endfacet
facet normal 1.19497828170392e-015 0.0 1.0
   outer loop
      vertex -6.0935546511501 0.0 22.6617763101614
      vertex -39.1314193221103 43.71584 22.6617763101614
      vertex -39.1314193221103 0.0 22.6617763101614
   endloop
endfacet
facet normal 1.19497828170392e-015 0.0 1.0
   outer loop
      vertex -39.1314193221103 43.71584 22.6617763101614
      vertex -6.0935546511501 0.0 22.6617763101614
      vertex -6.0935546511501 43.71584 22.6617763101614
   endloop
endfacet
facet normal 0.0 -1.0 0.0
   outer loop
      vertex -41.5256505829246 21.8516136875758 14.8740637443941
      vertex -42.5327890110942 21.8516136875758 13.5184452042051
      vertex -42.2333570445899 21.8516136875758 13.3769039118721
   endloop
endfacet
facet normal 0.0 -1.0 0.0
   outer loop
      vertex -42.5327890110942 21.8516136875758 13.5184452042051
      vertex -41.5256505829246 21.8516136875758 14.8740637443941
      vertex -41.8250825494289 21.8516136875758 15.0156050367271
   endloop
endfacet
facet normal -0.866121839302296 0.0 -0.499832931571747
   outer loop
      vertex -6.33278568536183 21.8516136875758 21.7188476091995
      vertex -4.65526639373796 21.3216936875757 18.8120041370066
      vertex -6.33278568536183 21.3216936875757 21.7188476091995
   endloop
endfacet
facet normal -0.866121839302296 0.0 -0.499832931571747
   outer loop
      vertex -4.65526639373796 21.3216936875757 18.8120041370066
      vertex -6.33278568536183 21.8516136875758 21.7188476091995
      vertex -4.65526639373796 21.8516136875758 18.8120041370066
   endloop
endfacet
facet normal 0.499832931571722 0.0 -0.866121839302311
   outer loop
      vertex -1.81991435611146 21.8516136875758 13.7221427829364
      vertex -2.60399713479503 21.3072039024844 13.2696540266432
      vertex -2.60399713479503 21.8516136875758 13.2696540266432
   endloop
endfacet
facet normal 0.499832931571722 0.0 -0.866121839302311
   outer loop
      vertex -2.60399713479503 21.3072039024844 13.2696540266432
      vertex -1.81991435611146 21.8516136875758 13.7221427829364
      vertex -1.81991435611146 21.3072039024844 13.7221427829364
   endloop
endfacet
facet normal 0.0 -1.0 0.0
   outer loop
      vertex -7.19336434489255 42.34688 21.2222136083898
      vertex -43.1778139151734 42.34688 11.3788963101615
      vertex -1.51285391517335 42.34688 11.3788963101615
   endloop
endfacet
facet normal 0.0 -1.0 0.0
   outer loop
      vertex -43.1778139151734 42.34688 11.3788963101615
      vertex -7.19336434489255 42.34688 21.2222136083898
      vertex -38.5248843448926 42.34688 21.2222136083898
   endloop
endfacet
facet normal -1.0 0.0 1.76159825246623e-014
   outer loop
      vertex -15.6700064220409 21.8516136875758 21.8625336083898
      vertex -15.6700064220409 21.2996136875757 21.2222136083898
      vertex -15.6700064220409 21.2996136875757 21.8625336083898
   endloop
endfacet
facet normal -1.0 0.0 1.76159825246623e-014
   outer loop
      vertex -15.6700064220409 21.2996136875757 21.2222136083898
      vertex -15.6700064220409 21.8516136875758 21.8625336083898
      vertex -15.6700064220409 21.8516136875758 21.2222136083898
   endloop
endfacet
facet normal 0.0 1.0 0.0
   outer loop
      vertex -2.60399713479503 21.3072039024844 13.2696540266432
      vertex -0.728771136489719 21.3072039024844 11.8313850664547
      vertex -1.51285391517335 21.3072039024844 11.3788963101615
   endloop
endfacet
facet normal 0.0 1.0 0.0
   outer loop
      vertex -0.728771136489719 21.3072039024844 11.8313850664547
      vertex -2.60399713479503 21.3072039024844 13.2696540266432
      vertex -1.81991435611146 21.3072039024844 13.7221427829364
   endloop
endfacet
facet normal 1.0 0.0 5.28479475739805e-014
   outer loop
      vertex -18.9378464220408 21.8516136875758 21.2222136083897
      vertex -18.9378464220409 21.2996136875757 21.8625336083898
      vertex -18.9378464220408 21.2996136875757 21.2222136083897
   endloop
endfacet
facet normal 1.0 0.0 5.28479475739805e-014
   outer loop
      vertex -18.9378464220409 21.2996136875757 21.8625336083898
      vertex -18.9378464220408 21.8516136875758 21.2222136083897
      vertex -18.9378464220409 21.8516136875758 21.8625336083898
   endloop
endfacet
facet normal 9.54052838424797e-017 0.0 -1.0
   outer loop
      vertex -44.3366400000001 43.71584 11.3788963101614
      vertex -43.1778139151734 42.34688 11.3788963101615
      vertex -44.3366400000001 0.0 11.3788963101614
   endloop
endfacet
facet normal 9.54052838424797e-017 0.0 -1.0
   outer loop
      vertex -43.1778139151734 42.34688 11.3788963101615
      vertex -44.3366400000001 43.71584 11.3788963101614
      vertex 0.0 43.71584 11.3788963101614
   endloop
endfacet
facet normal 9.54052838424797e-017 0.0 -1.0
   outer loop
      vertex -43.1778139151734 42.34688 11.3788963101615
      vertex 0.0 43.71584 11.3788963101614
      vertex -1.51285391517335 42.34688 11.3788963101615
   endloop
endfacet
facet normal 9.54052838424797e-017 0.0 -1.0
   outer loop
      vertex -1.51285391517335 42.34688 11.3788963101615
      vertex 0.0 43.71584 11.3788963101614
      vertex -1.51285391517335 21.8516136875758 11.3788963101615
   endloop
endfacet
facet normal 9.54052838424797e-017 0.0 -1.0
   outer loop
      vertex -1.51285391517335 21.8516136875758 11.3788963101615
      vertex 0.0 43.71584 11.3788963101614
      vertex -1.51285391517335 21.3072039024844 11.3788963101615
   endloop
endfacet
facet normal 9.54052838424797e-017 0.0 -1.0
   outer loop
      vertex -1.51285391517335 21.3072039024844 11.3788963101615
      vertex 0.0 43.71584 11.3788963101614
      vertex -1.51285391517335 1.35634737515151 11.3788963101615
   endloop
endfacet
facet normal 9.54052838424797e-017 0.0 -1.0
   outer loop
      vertex -44.3366400000001 0.0 11.3788963101614
      vertex -43.1778139151734 1.35634737515151 11.3788963101615
      vertex 0.0 0.0 11.3788963101614
   endloop
endfacet
facet normal 9.54052838424797e-017 0.0 -1.0
   outer loop
      vertex -43.1778139151734 1.35634737515151 11.3788963101615
      vertex -44.3366400000001 0.0 11.3788963101614
      vertex -43.1778139151734 42.34688 11.3788963101615
   endloop
endfacet
facet normal 9.54052838424797e-017 0.0 -1.0
   outer loop
      vertex -43.1778139151734 1.35634737515151 11.3788963101615
      vertex -43.1778139151734 42.34688 11.3788963101615
      vertex -43.1778139151734 21.8516136875758 11.3788963101615
   endloop
endfacet
facet normal 9.54052838424797e-017 0.0 -1.0
   outer loop
      vertex -43.1778139151734 1.35634737515151 11.3788963101615
      vertex -43.1778139151734 21.8516136875758 11.3788963101615
      vertex -43.1778139151734 21.3075255763397 11.3788963101615
   endloop
endfacet
facet normal 9.54052838424797e-017 0.0 -1.0
   outer loop
      vertex 0.0 0.0 11.3788963101614
      vertex -43.1778139151734 1.35634737515151 11.3788963101615
      vertex -1.51285391517335 1.35634737515151 11.3788963101615
   endloop
endfacet
facet normal 9.54052838424797e-017 0.0 -1.0
   outer loop
      vertex 0.0 0.0 11.3788963101614
      vertex -1.51285391517335 1.35634737515151 11.3788963101615
      vertex 0.0 43.71584 11.3788963101614
   endloop
endfacet
facet normal 0.0 -1.0 0.0
   outer loop
      vertex -0.728771136489719 21.8516136875758 11.8313850664547
      vertex -2.60399713479503 21.8516136875758 13.2696540266432
      vertex -1.51285391517335 21.8516136875758 11.3788963101615
   endloop
endfacet
facet normal 0.0 -1.0 0.0
   outer loop
      vertex -2.60399713479503 21.8516136875758 13.2696540266432
      vertex -0.728771136489719 21.8516136875758 11.8313850664547
      vertex -1.81991435611146 21.8516136875758 13.7221427829364
   endloop
endfacet
facet normal 0.904082024469784 -8.74675225364097e-018 -0.427358974435563
   outer loop
      vertex -40.3634883135388 21.8516136875758 18.1592878797313
      vertex -38.8442784424973 21.3023652437653 21.3731909868784
      vertex -40.3634883135388 21.2996136875757 18.1592878797313
   endloop
endfacet
facet normal 0.904082024469784 -8.74675225364097e-018 -0.427358974435563
   outer loop
      vertex -38.8442784424973 21.3023652437653 21.3731909868784
      vertex -40.3634883135388 21.8516136875758 18.1592878797313
      vertex -38.8442784424973 21.8516136875758 21.3731909868784
   endloop
endfacet
facet normal 0.0 1.0 0.0
   outer loop
      vertex -11.4771975912138 21.3044270153808 21.8404536083898
      vertex -7.19336434489255 21.3044270153808 21.2222136083898
      vertex -11.4771975912138 21.3044270153808 21.2222136083898
   endloop
endfacet
facet normal 0.0 1.0 0.0
   outer loop
      vertex -7.19336434489255 21.3044270153808 21.2222136083898
      vertex -11.4771975912138 21.3044270153808 21.8404536083898
      vertex -7.19336434489255 21.3044270153808 21.8404536083898
   endloop
endfacet
facet normal -0.499832931571744 0.0 0.866121839302298
   outer loop
      vertex -2.2359529598901 21.2775336875757 13.9129667857199
      vertex -2.79054809603215 21.8516136875758 13.5929137629759
      vertex -2.79054809603215 21.2775336875757 13.5929137629759
   endloop
endfacet
facet normal -0.499832931571744 0.0 0.866121839302298
   outer loop
      vertex -2.79054809603215 21.8516136875758 13.5929137629759
      vertex -2.2359529598901 21.2775336875757 13.9129667857199
      vertex -2.2359529598901 21.8516136875758 13.9129667857199
   endloop
endfacet
facet normal 0.904082024469786 0.0 -0.42735897443556
   outer loop
      vertex -42.5327890110942 21.8516136875758 13.5184452042051
      vertex -41.8250825494289 21.2996136875757 15.0156050367271
      vertex -42.5327890110942 21.2996136875757 13.5184452042051
   endloop
endfacet
facet normal 0.904082024469786 0.0 -0.42735897443556
   outer loop
      vertex -41.8250825494289 21.2996136875757 15.0156050367271
      vertex -42.5327890110942 21.8516136875758 13.5184452042051
      vertex -41.8250825494289 21.8516136875758 15.0156050367271
   endloop
endfacet
facet normal 7.89937325866617e-015 0.0 -1.0
   outer loop
      vertex -7.19336434489255 21.8516136875758 21.8404536083898
      vertex -11.4771975912138 21.3044270153808 21.8404536083898
      vertex -11.4771975912138 21.8516136875758 21.8404536083898
   endloop
endfacet
facet normal 7.89937325866617e-015 0.0 -1.0
   outer loop
      vertex -11.4771975912138 21.3044270153808 21.8404536083898
      vertex -7.19336434489255 21.8516136875758 21.8404536083898
      vertex -7.19336434489255 21.3044270153808 21.8404536083898
   endloop
endfacet
facet normal -1.0 0.0 -9.12256237884256e-015
   outer loop
      vertex -7.19336434489255 21.8516136875758 21.8404536083898
      vertex -7.19336434489255 21.3044270153808 21.2222136083898
      vertex -7.19336434489255 21.3044270153808 21.8404536083898
   endloop
endfacet
facet normal -1.0 0.0 -9.12256237884256e-015
   outer loop
      vertex -7.19336434489255 21.3044270153808 21.2222136083898
      vertex -7.19336434489255 21.8516136875758 21.8404536083898
      vertex -7.19336434489255 21.8516136875758 21.2222136083898
   endloop
endfacet
facet normal 0.904082024469777 0.0 -0.427358974435579
   outer loop
      vertex -43.497208012778 21.8516136875758 11.5298736886501
      vertex -42.6679687111714 21.3075255763397 13.2841374140266
      vertex -43.497208012778 21.3075255763397 11.5298736886501
   endloop
endfacet
facet normal 0.904082024469777 0.0 -0.427358974435579
   outer loop
      vertex -42.6679687111714 21.3075255763397 13.2841374140266
      vertex -43.497208012778 21.8516136875758 11.5298736886501
      vertex -42.6679687111714 21.8516136875758 13.2841374140266
   endloop
endfacet
facet normal 0.0 -1.0 0.0
   outer loop
      vertex -42.3485746135667 21.8516136875758 13.133160035538
      vertex -43.497208012778 21.8516136875758 11.5298736886501
      vertex -43.1778139151734 21.8516136875758 11.3788963101615
   endloop
endfacet
facet normal 0.0 -1.0 0.0
   outer loop
      vertex -43.497208012778 21.8516136875758 11.5298736886501
      vertex -42.3485746135667 21.8516136875758 13.133160035538
      vertex -42.6679687111714 21.8516136875758 13.2841374140266
   endloop
endfacet
facet normal -1.03553410786865e-014 0.0 -1.0
   outer loop
      vertex -15.6700064220409 21.8516136875758 21.8625336083898
      vertex -18.9378464220409 21.2996136875757 21.8625336083898
      vertex -18.9378464220409 21.8516136875758 21.8625336083898
   endloop
endfacet
facet normal -1.03553410786865e-014 0.0 -1.0
   outer loop
      vertex -18.9378464220409 21.2996136875757 21.8625336083898
      vertex -15.6700064220409 21.8516136875758 21.8625336083898
      vertex -15.6700064220409 21.2996136875757 21.8625336083898
   endloop
endfacet
facet normal -0.427358974435539 0.0 -0.904082024469796
   outer loop
      vertex -40.1914548857001 21.8516136875758 17.6965675857576
      vertex -40.5108489833048 21.2996136875757 17.8475449642462
      vertex -40.5108489833048 21.8516136875758 17.8475449642462
   endloop
endfacet
facet normal -0.427358974435539 0.0 -0.904082024469796
   outer loop
      vertex -40.5108489833048 21.2996136875757 17.8475449642462
      vertex -40.1914548857001 21.8516136875758 17.6965675857576
      vertex -40.1914548857001 21.2996136875757 17.6965675857576
   endloop
endfacet
facet normal 0.0 1.0 0.0
   outer loop
      vertex -18.9378464220409 21.2996136875757 21.8625336083898
      vertex -15.6700064220409 21.2996136875757 21.2222136083898
      vertex -18.9378464220408 21.2996136875757 21.2222136083897
   endloop
endfacet
facet normal 0.0 1.0 0.0
   outer loop
      vertex -15.6700064220409 21.2996136875757 21.2222136083898
      vertex -18.9378464220409 21.2996136875757 21.8625336083898
      vertex -15.6700064220409 21.2996136875757 21.8625336083898
   endloop
endfacet
facet normal 1.0 0.0 3.9297191785786e-014
   outer loop
      vertex -15.2234648770081 21.8516136875758 21.2222136083898
      vertex -15.2234648770081 21.3437736875757 21.7962936083898
      vertex -15.2234648770081 21.3437736875757 21.2222136083898
   endloop
endfacet
facet normal 1.0 0.0 3.9297191785786e-014
   outer loop
      vertex -15.2234648770081 21.3437736875757 21.7962936083898
      vertex -15.2234648770081 21.8516136875758 21.2222136083898
      vertex -15.2234648770081 21.8516136875758 21.7962936083898
   endloop
endfacet
facet normal 0.0 1.0 0.0
   outer loop
      vertex -42.5327890110942 21.2996136875757 13.5184452042051
      vertex -41.5256505829246 21.2996136875757 14.8740637443941
      vertex -42.2333570445899 21.2996136875757 13.3769039118721
   endloop
endfacet
facet normal 0.0 1.0 0.0
   outer loop
      vertex -41.5256505829246 21.2996136875757 14.8740637443941
      vertex -42.5327890110942 21.2996136875757 13.5184452042051
      vertex -41.8250825494289 21.2996136875757 15.0156050367271
   endloop
endfacet
facet normal 0.427358974435522 0.0 0.904082024469804
   outer loop
      vertex -42.2333570445899 21.2996136875757 13.3769039118721
      vertex -42.5327890110942 21.8516136875758 13.5184452042051
      vertex -42.5327890110942 21.2996136875757 13.5184452042051
   endloop
endfacet
facet normal 0.427358974435522 0.0 0.904082024469804
   outer loop
      vertex -42.5327890110942 21.8516136875758 13.5184452042051
      vertex -42.2333570445899 21.2996136875757 13.3769039118721
      vertex -42.2333570445899 21.8516136875758 13.3769039118721
   endloop
endfacet
facet normal 0.0 -1.0 0.0
   outer loop
      vertex -11.8452248770081 21.8516136875758 21.7962936083897
      vertex -15.2234648770081 21.8516136875758 21.2222136083898
      vertex -11.8452248770081 21.8516136875758 21.2222136083898
   endloop
endfacet
facet normal 0.0 -1.0 0.0
   outer loop
      vertex -15.2234648770081 21.8516136875758 21.2222136083898
      vertex -11.8452248770081 21.8516136875758 21.7962936083897
      vertex -15.2234648770081 21.8516136875758 21.7962936083898
   endloop
endfacet
facet normal 0.0 1.0 0.0
   outer loop
      vertex -3.76174347539327 21.2775336875757 15.2758231416138
      vertex -2.2359529598901 21.2775336875757 13.9129667857199
      vertex -2.79054809603215 21.2775336875757 13.5929137629759
   endloop
endfacet
facet normal 0.0 1.0 0.0
   outer loop
      vertex -2.2359529598901 21.2775336875757 13.9129667857199
      vertex -3.76174347539327 21.2775336875757 15.2758231416138
      vertex -3.20714833925124 21.2775336875757 15.5958761643578
   endloop
endfacet
facet normal 0.499832931571754 0.0 -0.866121839302293
   outer loop
      vertex -3.20714833925124 21.8516136875758 15.5958761643578
      vertex -3.76174347539327 21.2775336875757 15.2758231416138
      vertex -3.76174347539327 21.8516136875758 15.2758231416138
   endloop
endfacet
facet normal 0.499832931571754 0.0 -0.866121839302293
   outer loop
      vertex -3.76174347539327 21.2775336875757 15.2758231416138
      vertex -3.20714833925124 21.8516136875758 15.5958761643578
      vertex -3.20714833925124 21.2775336875757 15.5958761643578
   endloop
endfacet
facet normal -0.866121839302285 0.0 -0.499832931571767
   outer loop
      vertex -1.81991435611146 21.8516136875758 13.7221427829364
      vertex -0.728771136489719 21.3072039024844 11.8313850664547
      vertex -1.81991435611146 21.3072039024844 13.7221427829364
   endloop
endfacet
facet normal -0.866121839302285 0.0 -0.499832931571767
   outer loop
      vertex -0.728771136489719 21.3072039024844 11.8313850664547
      vertex -1.81991435611146 21.8516136875758 13.7221427829364
      vertex -0.728771136489719 21.8516136875758 11.8313850664547
   endloop
endfacet
facet normal -0.499832931571702 0.0 0.866121839302322
   outer loop
      vertex -0.728771136489719 21.3072039024844 11.8313850664547
      vertex -1.51285391517335 21.8516136875758 11.3788963101615
      vertex -1.51285391517335 21.3072039024844 11.3788963101615
   endloop
endfacet
facet normal -0.499832931571702 0.0 0.866121839302322
   outer loop
      vertex -1.51285391517335 21.8516136875758 11.3788963101615
      vertex -0.728771136489719 21.3072039024844 11.8313850664547
      vertex -0.728771136489719 21.8516136875758 11.8313850664547
   endloop
endfacet
facet normal -0.866121839302313 0.0 -0.499832931571719
   outer loop
      vertex -4.50354990497058 21.8516136875758 18.5049316041485
      vertex -3.13504732496176 21.2775336875757 16.1335592978859
      vertex -4.50354990497058 21.2775336875757 18.5049316041485
   endloop
endfacet
facet normal -0.866121839302313 0.0 -0.499832931571719
   outer loop
      vertex -3.13504732496176 21.2775336875757 16.1335592978859
      vertex -4.50354990497058 21.8516136875758 18.5049316041485
      vertex -3.13504732496176 21.8516136875758 16.1335592978859
   endloop
endfacet
facet normal 0.0 1.0 0.0
   outer loop
      vertex -41.7092319250579 21.2996136875757 15.312354314509
      vertex -40.1914548857001 21.2996136875757 17.6965675857576
      vertex -41.3898378274533 21.2996136875757 15.1613769360204
   endloop
endfacet
facet normal 0.0 1.0 0.0
   outer loop
      vertex -40.1914548857001 21.2996136875757 17.6965675857576
      vertex -41.7092319250579 21.2996136875757 15.312354314509
      vertex -40.5108489833048 21.2996136875757 17.8475449642462
   endloop
endfacet
facet normal 0.0 1.0 0.0
   outer loop
      vertex -15.2234648770081 21.3437736875757 21.2222136083898
      vertex -11.8452248770081 21.3437736875757 21.7962936083897
      vertex -11.8452248770081 21.3437736875757 21.2222136083898
   endloop
endfacet
facet normal 0.0 1.0 0.0
   outer loop
      vertex -11.8452248770081 21.3437736875757 21.7962936083897
      vertex -15.2234648770081 21.3437736875757 21.2222136083898
      vertex -15.2234648770081 21.3437736875757 21.7962936083898
   endloop
endfacet
facet normal -1.0 0.0 5.1086349321517e-014
   outer loop
      vertex -19.4487016257114 21.8516136875758 21.8846136083898
      vertex -19.4487016257115 21.2775336875757 21.2222136083898
      vertex -19.4487016257114 21.2775336875757 21.8846136083898
   endloop
endfacet
facet normal -1.0 0.0 5.1086349321517e-014
   outer loop
      vertex -19.4487016257115 21.2775336875757 21.2222136083898
      vertex -19.4487016257114 21.8516136875758 21.8846136083898
      vertex -19.4487016257115 21.8516136875758 21.2222136083898
   endloop
endfacet
facet normal -1.66948853991895e-015 0.0 -1.0
   outer loop
      vertex -11.8452248770081 21.8516136875758 21.7962936083897
      vertex -15.2234648770081 21.3437736875757 21.7962936083898
      vertex -15.2234648770081 21.8516136875758 21.7962936083898
   endloop
endfacet
facet normal -1.66948853991895e-015 0.0 -1.0
   outer loop
      vertex -15.2234648770081 21.3437736875757 21.7962936083898
      vertex -11.8452248770081 21.8516136875758 21.7962936083897
      vertex -11.8452248770081 21.3437736875757 21.7962936083897
   endloop
endfacet
facet normal 0.90408202446979 0.0 -0.427358974435553
   outer loop
      vertex -41.7092319250579 21.8516136875758 15.312354314509
      vertex -40.5108489833048 21.2996136875757 17.8475449642462
      vertex -41.7092319250579 21.2996136875757 15.312354314509
   endloop
endfacet
facet normal 0.90408202446979 0.0 -0.427358974435553
   outer loop
      vertex -40.5108489833048 21.2996136875757 17.8475449642462
      vertex -41.7092319250579 21.8516136875758 15.312354314509
      vertex -40.5108489833048 21.8516136875758 17.8475449642462
   endloop
endfacet
facet normal -0.866121839302301 -5.64299543578794e-018 -0.49983293157174
   outer loop
      vertex -7.19336434489255 42.34688 21.2222136083898
      vertex -5.51584505326865 21.8516136875758 18.315370136197
      vertex -7.19336434489255 21.8516136875758 21.2222136083898
   endloop
endfacet
facet normal -0.866121839302301 -5.64299543578794e-018 -0.49983293157174
   outer loop
      vertex -5.51584505326865 21.8516136875758 18.315370136197
      vertex -7.19336434489255 42.34688 21.2222136083898
      vertex -5.34500459428958 21.8516136875758 18.0193339144679
   endloop
endfacet
facet normal -0.866121839302301 -5.64299543578794e-018 -0.49983293157174
   outer loop
      vertex -5.34500459428958 21.8516136875758 18.0193339144679
      vertex -7.19336434489255 42.34688 21.2222136083898
      vertex -3.97650201428061 21.8516136875758 15.6479616082053
   endloop
endfacet
facet normal -0.866121839302301 -5.64299543578794e-018 -0.49983293157174
   outer loop
      vertex -3.97650201428061 21.8516136875758 15.6479616082053
      vertex -7.19336434489255 42.34688 21.2222136083898
      vertex -3.76174347539327 21.8516136875758 15.2758231416138
   endloop
endfacet
facet normal -0.866121839302301 -5.64299543578794e-018 -0.49983293157174
   outer loop
      vertex -3.76174347539327 21.8516136875758 15.2758231416138
      vertex -7.19336434489255 42.34688 21.2222136083898
      vertex -2.79054809603215 21.8516136875758 13.5929137629759
   endloop
endfacet
facet normal -0.866121839302301 -5.64299543578794e-018 -0.49983293157174
   outer loop
      vertex -2.79054809603215 21.8516136875758 13.5929137629759
      vertex -7.19336434489255 42.34688 21.2222136083898
      vertex -2.60399713479503 21.8516136875758 13.2696540266432
   endloop
endfacet
facet normal -0.866121839302301 -5.64299543578794e-018 -0.49983293157174
   outer loop
      vertex -2.60399713479503 21.8516136875758 13.2696540266432
      vertex -7.19336434489255 42.34688 21.2222136083898
      vertex -1.51285391517335 21.8516136875758 11.3788963101615
   endloop
endfacet
facet normal -0.866121839302301 -5.64299543578794e-018 -0.49983293157174
   outer loop
      vertex -1.51285391517335 21.8516136875758 11.3788963101615
      vertex -7.19336434489255 42.34688 21.2222136083898
      vertex -1.51285391517335 42.34688 11.3788963101615
   endloop
endfacet
facet normal -0.866121839302301 -5.64299543578794e-018 -0.49983293157174
   outer loop
      vertex -2.79054809603215 21.8516136875758 13.5929137629759
      vertex -2.60399713479503 21.3072039024844 13.2696540266432
      vertex -2.79054809603215 21.2775336875757 13.5929137629759
   endloop
endfacet
facet normal -0.866121839302301 -5.64299543578794e-018 -0.49983293157174
   outer loop
      vertex -2.60399713479503 21.3072039024844 13.2696540266432
      vertex -2.79054809603215 21.8516136875758 13.5929137629759
      vertex -2.60399713479503 21.8516136875758 13.2696540266432
   endloop
endfacet
facet normal -0.866121839302301 -5.64299543578794e-018 -0.49983293157174
   outer loop
      vertex -3.97650201428061 21.8516136875758 15.6479616082053
      vertex -3.76174347539327 21.2775336875757 15.2758231416138
      vertex -3.97650201428061 21.2775336875757 15.6479616082053
   endloop
endfacet
facet normal -0.866121839302301 -5.64299543578794e-018 -0.49983293157174
   outer loop
      vertex -3.76174347539327 21.2775336875757 15.2758231416138
      vertex -3.97650201428061 21.8516136875758 15.6479616082053
      vertex -3.76174347539327 21.8516136875758 15.2758231416138
   endloop
endfacet
facet normal -0.866121839302301 -5.64299543578794e-018 -0.49983293157174
   outer loop
      vertex -7.19336434489255 21.3044270153808 21.2222136083898
      vertex -1.51285391517335 1.35634737515151 11.3788963101615
      vertex -7.19336434489255 1.35634737515151 21.2222136083898
   endloop
endfacet
facet normal -0.866121839302301 -5.64299543578794e-018 -0.49983293157174
   outer loop
      vertex -1.51285391517335 1.35634737515151 11.3788963101615
      vertex -7.19336434489255 21.3044270153808 21.2222136083898
      vertex -5.34500459428958 21.2775336875757 18.0193339144679
   endloop
endfacet
facet normal -0.866121839302301 -5.64299543578794e-018 -0.49983293157174
   outer loop
      vertex -5.34500459428958 21.2775336875757 18.0193339144679
      vertex -7.19336434489255 21.3044270153808 21.2222136083898
      vertex -5.51584505326865 21.3216936875757 18.315370136197
   endloop
endfacet
facet normal -0.866121839302301 -5.64299543578794e-018 -0.49983293157174
   outer loop
      vertex -5.34500459428958 21.2775336875757 18.0193339144679
      vertex -5.51584505326865 21.3216936875757 18.315370136197
      vertex -5.34500459428958 21.8516136875758 18.0193339144679
   endloop
endfacet
facet normal -0.866121839302301 -5.64299543578794e-018 -0.49983293157174
   outer loop
      vertex -5.34500459428958 21.8516136875758 18.0193339144679
      vertex -5.51584505326865 21.3216936875757 18.315370136197
      vertex -5.51584505326865 21.8516136875758 18.315370136197
   endloop
endfacet
facet normal -0.866121839302301 -5.64299543578794e-018 -0.49983293157174
   outer loop
      vertex -1.51285391517335 1.35634737515151 11.3788963101615
      vertex -2.79054809603215 21.2775336875757 13.5929137629759
      vertex -1.51285391517335 21.3072039024844 11.3788963101615
   endloop
endfacet
facet normal -0.866121839302301 -5.64299543578794e-018 -0.49983293157174
   outer loop
      vertex -2.79054809603215 21.2775336875757 13.5929137629759
      vertex -1.51285391517335 1.35634737515151 11.3788963101615
      vertex -5.34500459428958 21.2775336875757 18.0193339144679
   endloop
endfacet
facet normal -0.866121839302301 -5.64299543578794e-018 -0.49983293157174
   outer loop
      vertex -2.79054809603215 21.2775336875757 13.5929137629759
      vertex -5.34500459428958 21.2775336875757 18.0193339144679
      vertex -3.97650201428061 21.2775336875757 15.6479616082053
   endloop
endfacet
facet normal -0.866121839302301 -5.64299543578794e-018 -0.49983293157174
   outer loop
      vertex -2.79054809603215 21.2775336875757 13.5929137629759
      vertex -3.97650201428061 21.2775336875757 15.6479616082053
      vertex -3.76174347539327 21.2775336875757 15.2758231416138
   endloop
endfacet
facet normal -0.866121839302301 -5.64299543578794e-018 -0.49983293157174
   outer loop
      vertex -1.51285391517335 21.3072039024844 11.3788963101615
      vertex -2.79054809603215 21.2775336875757 13.5929137629759
      vertex -2.60399713479503 21.3072039024844 13.2696540266432
   endloop
endfacet
facet normal -2.39467262444616e-014 0.0 -1.0
   outer loop
      vertex -22.933307365302 21.8516136875758 21.9508536083897
      vertex -25.7595473653021 21.2333736875757 21.9508536083898
      vertex -25.7595473653021 21.8516136875758 21.9508536083898
   endloop
endfacet
facet normal -2.39467262444616e-014 0.0 -1.0
   outer loop
      vertex -25.7595473653021 21.2333736875757 21.9508536083898
      vertex -22.933307365302 21.8516136875758 21.9508536083897
      vertex -22.933307365302 21.2333736875757 21.9508536083897
   endloop
endfacet
facet normal 0.0 -1.0 0.0
   outer loop
      vertex -2.2359529598901 21.8516136875758 13.9129667857199
      vertex -3.76174347539327 21.8516136875758 15.2758231416138
      vertex -2.79054809603215 21.8516136875758 13.5929137629759
   endloop
endfacet
facet normal 0.0 -1.0 0.0
   outer loop
      vertex -3.76174347539327 21.8516136875758 15.2758231416138
      vertex -2.2359529598901 21.8516136875758 13.9129667857199
      vertex -3.20714833925124 21.8516136875758 15.5958761643578
   endloop
endfacet
facet normal 5.45601612011896e-016 4.28738888043969e-018 -1.0
   outer loop
      vertex -7.19336434489255 42.34688 21.2222136083898
      vertex -38.5248843448926 21.8516136875758 21.2222136083898
      vertex -38.5248843448926 42.34688 21.2222136083898
   endloop
endfacet
facet normal 5.45601612011896e-016 4.28738888043969e-018 -1.0
   outer loop
      vertex -38.5248843448926 21.8516136875758 21.2222136083898
      vertex -7.19336434489255 42.34688 21.2222136083898
      vertex -34.4158003933156 21.8516136875758 21.2222136083897
   endloop
endfacet
facet normal 5.45601612011896e-016 4.28738888043969e-018 -1.0
   outer loop
      vertex -34.4158003933156 21.8516136875758 21.2222136083897
      vertex -7.19336434489255 42.34688 21.2222136083898
      vertex -34.4158003933156 21.3023652437653 21.2222136083897
   endloop
endfacet
facet normal 5.45601612011896e-016 4.28738888043969e-018 -1.0
   outer loop
      vertex -34.4158003933156 21.3023652437653 21.2222136083897
      vertex -7.19336434489255 42.34688 21.2222136083898
      vertex -33.6655963055017 21.8516136875758 21.2222136083898
   endloop
endfacet
facet normal 5.45601612011896e-016 4.28738888043969e-018 -1.0
   outer loop
      vertex -33.6655963055017 21.8516136875758 21.2222136083898
      vertex -7.19336434489255 42.34688 21.2222136083898
      vertex -30.4860763055017 21.8516136875758 21.2222136083897
   endloop
endfacet
facet normal 5.45601612011896e-016 4.28738888043969e-018 -1.0
   outer loop
      vertex -30.4860763055017 21.8516136875758 21.2222136083897
      vertex -7.19336434489255 42.34688 21.2222136083898
      vertex -29.9362256317285 21.8516136875758 21.2222136083897
   endloop
endfacet
facet normal 5.45601612011896e-016 4.28738888043969e-018 -1.0
   outer loop
      vertex -30.4860763055017 21.8516136875758 21.2222136083897
      vertex -29.9362256317285 21.8516136875758 21.2222136083897
      vertex -30.4860763055017 21.1892136875757 21.2222136083897
   endloop
endfacet
facet normal 5.45601612011896e-016 4.28738888043969e-018 -1.0
   outer loop
      vertex -29.9362256317285 21.8516136875758 21.2222136083897
      vertex -7.19336434489255 42.34688 21.2222136083898
      vertex -26.3592656317286 21.8516136875758 21.2222136083898
   endloop
endfacet
facet normal 5.45601612011896e-016 4.28738888043969e-018 -1.0
   outer loop
      vertex -26.3592656317286 21.8516136875758 21.2222136083898
      vertex -7.19336434489255 42.34688 21.2222136083898
      vertex -26.3592656317286 21.2333736875757 21.2222136083898
   endloop
endfacet
facet normal 5.45601612011896e-016 4.28738888043969e-018 -1.0
   outer loop
      vertex -26.3592656317286 21.2333736875757 21.2222136083898
      vertex -7.19336434489255 42.34688 21.2222136083898
      vertex -25.7595473653021 21.8516136875758 21.2222136083898
   endloop
endfacet
facet normal 5.45601612011896e-016 4.28738888043969e-018 -1.0
   outer loop
      vertex -25.7595473653021 21.8516136875758 21.2222136083898
      vertex -7.19336434489255 42.34688 21.2222136083898
      vertex -22.9333073653021 21.8516136875758 21.2222136083898
   endloop
endfacet
facet normal 5.45601612011896e-016 4.28738888043969e-018 -1.0
   outer loop
      vertex -22.9333073653021 21.8516136875758 21.2222136083898
      vertex -7.19336434489255 42.34688 21.2222136083898
      vertex -22.4736616257115 21.8516136875758 21.2222136083897
   endloop
endfacet
facet normal 5.45601612011896e-016 4.28738888043969e-018 -1.0
   outer loop
      vertex -22.9333073653021 21.8516136875758 21.2222136083898
      vertex -22.4736616257115 21.8516136875758 21.2222136083897
      vertex -22.9333073653021 21.2333736875757 21.2222136083898
   endloop
endfacet
facet normal 5.45601612011896e-016 4.28738888043969e-018 -1.0
   outer loop
      vertex -22.4736616257115 21.8516136875758 21.2222136083897
      vertex -7.19336434489255 42.34688 21.2222136083898
      vertex -19.4487016257115 21.8516136875758 21.2222136083898
   endloop
endfacet
facet normal 5.45601612011896e-016 4.28738888043969e-018 -1.0
   outer loop
      vertex -19.4487016257115 21.8516136875758 21.2222136083898
      vertex -7.19336434489255 42.34688 21.2222136083898
      vertex -19.4487016257115 21.2775336875757 21.2222136083898
   endloop
endfacet
facet normal 5.45601612011896e-016 4.28738888043969e-018 -1.0
   outer loop
      vertex -19.4487016257115 21.2775336875757 21.2222136083898
      vertex -7.19336434489255 42.34688 21.2222136083898
      vertex -18.9378464220408 21.8516136875758 21.2222136083897
   endloop
endfacet
facet normal 5.45601612011896e-016 4.28738888043969e-018 -1.0
   outer loop
      vertex -18.9378464220408 21.8516136875758 21.2222136083897
      vertex -7.19336434489255 42.34688 21.2222136083898
      vertex -15.6700064220409 21.8516136875758 21.2222136083898
   endloop
endfacet
facet normal 5.45601612011896e-016 4.28738888043969e-018 -1.0
   outer loop
      vertex -15.6700064220409 21.8516136875758 21.2222136083898
      vertex -7.19336434489255 42.34688 21.2222136083898
      vertex -15.6700064220409 21.2996136875757 21.2222136083898
   endloop
endfacet
facet normal 5.45601612011896e-016 4.28738888043969e-018 -1.0
   outer loop
      vertex -15.6700064220409 21.2996136875757 21.2222136083898
      vertex -7.19336434489255 42.34688 21.2222136083898
      vertex -15.2234648770081 21.8516136875758 21.2222136083898
   endloop
endfacet
facet normal 5.45601612011896e-016 4.28738888043969e-018 -1.0
   outer loop
      vertex -15.2234648770081 21.8516136875758 21.2222136083898
      vertex -7.19336434489255 42.34688 21.2222136083898
      vertex -11.8452248770081 21.8516136875758 21.2222136083898
   endloop
endfacet
facet normal 5.45601612011896e-016 4.28738888043969e-018 -1.0
   outer loop
      vertex -11.8452248770081 21.8516136875758 21.2222136083898
      vertex -7.19336434489255 42.34688 21.2222136083898
      vertex -11.8452248770081 21.3437736875757 21.2222136083898
   endloop
endfacet
facet normal 5.45601612011896e-016 4.28738888043969e-018 -1.0
   outer loop
      vertex -11.8452248770081 21.3437736875757 21.2222136083898
      vertex -7.19336434489255 42.34688 21.2222136083898
      vertex -11.4771975912138 21.8516136875758 21.2222136083898
   endloop
endfacet
facet normal 5.45601612011896e-016 4.28738888043969e-018 -1.0
   outer loop
      vertex -11.4771975912138 21.8516136875758 21.2222136083898
      vertex -7.19336434489255 42.34688 21.2222136083898
      vertex -7.19336434489255 21.8516136875758 21.2222136083898
   endloop
endfacet
facet normal 5.45601612011896e-016 4.28738888043969e-018 -1.0
   outer loop
      vertex -34.4158003933156 21.3023652437653 21.2222136083897
      vertex -38.5248843448926 1.35634737515151 21.2222136083898
      vertex -38.5248843448926 21.3023652437653 21.2222136083898
   endloop
endfacet
facet normal 5.45601612011896e-016 4.28738888043969e-018 -1.0
   outer loop
      vertex -38.5248843448926 1.35634737515151 21.2222136083898
      vertex -34.4158003933156 21.3023652437653 21.2222136083897
      vertex -7.19336434489255 1.35634737515151 21.2222136083898
   endloop
endfacet
facet normal 5.45601612011896e-016 4.28738888043969e-018 -1.0
   outer loop
      vertex -7.19336434489255 1.35634737515151 21.2222136083898
      vertex -34.4158003933156 21.3023652437653 21.2222136083897
      vertex -33.6655963055017 21.1892136875757 21.2222136083898
   endloop
endfacet
facet normal 5.45601612011896e-016 4.28738888043969e-018 -1.0
   outer loop
      vertex -33.6655963055017 21.1892136875757 21.2222136083898
      vertex -34.4158003933156 21.3023652437653 21.2222136083897
      vertex -33.6655963055017 21.8516136875758 21.2222136083898
   endloop
endfacet
facet normal 5.45601612011896e-016 4.28738888043969e-018 -1.0
   outer loop
      vertex -7.19336434489255 1.35634737515151 21.2222136083898
      vertex -33.6655963055017 21.1892136875757 21.2222136083898
      vertex -30.4860763055017 21.1892136875757 21.2222136083897
   endloop
endfacet
facet normal 5.45601612011896e-016 4.28738888043969e-018 -1.0
   outer loop
      vertex -7.19336434489255 1.35634737515151 21.2222136083898
      vertex -30.4860763055017 21.1892136875757 21.2222136083897
      vertex -29.9362256317285 21.2333736875757 21.2222136083897
   endloop
endfacet
facet normal 5.45601612011896e-016 4.28738888043969e-018 -1.0
   outer loop
      vertex -29.9362256317285 21.2333736875757 21.2222136083897
      vertex -30.4860763055017 21.1892136875757 21.2222136083897
      vertex -29.9362256317285 21.8516136875758 21.2222136083897
   endloop
endfacet
facet normal 5.45601612011896e-016 4.28738888043969e-018 -1.0
   outer loop
      vertex -7.19336434489255 1.35634737515151 21.2222136083898
      vertex -29.9362256317285 21.2333736875757 21.2222136083897
      vertex -26.3592656317286 21.2333736875757 21.2222136083898
   endloop
endfacet
facet normal 5.45601612011896e-016 4.28738888043969e-018 -1.0
   outer loop
      vertex -7.19336434489255 1.35634737515151 21.2222136083898
      vertex -26.3592656317286 21.2333736875757 21.2222136083898
      vertex -25.7595473653021 21.2333736875757 21.2222136083898
   endloop
endfacet
facet normal 5.45601612011896e-016 4.28738888043969e-018 -1.0
   outer loop
      vertex -25.7595473653021 21.2333736875757 21.2222136083898
      vertex -26.3592656317286 21.2333736875757 21.2222136083898
      vertex -25.7595473653021 21.8516136875758 21.2222136083898
   endloop
endfacet
facet normal 5.45601612011896e-016 4.28738888043969e-018 -1.0
   outer loop
      vertex -7.19336434489255 1.35634737515151 21.2222136083898
      vertex -25.7595473653021 21.2333736875757 21.2222136083898
      vertex -22.9333073653021 21.2333736875757 21.2222136083898
   endloop
endfacet
facet normal 5.45601612011896e-016 4.28738888043969e-018 -1.0
   outer loop
      vertex -7.19336434489255 1.35634737515151 21.2222136083898
      vertex -22.9333073653021 21.2333736875757 21.2222136083898
      vertex -22.4736616257115 21.2775336875757 21.2222136083897
   endloop
endfacet
facet normal 5.45601612011896e-016 4.28738888043969e-018 -1.0
   outer loop
      vertex -22.4736616257115 21.2775336875757 21.2222136083897
      vertex -22.9333073653021 21.2333736875757 21.2222136083898
      vertex -22.4736616257115 21.8516136875758 21.2222136083897
   endloop
endfacet
facet normal 5.45601612011896e-016 4.28738888043969e-018 -1.0
   outer loop
      vertex -7.19336434489255 1.35634737515151 21.2222136083898
      vertex -22.4736616257115 21.2775336875757 21.2222136083897
      vertex -19.4487016257115 21.2775336875757 21.2222136083898
   endloop
endfacet
facet normal 5.45601612011896e-016 4.28738888043969e-018 -1.0
   outer loop
      vertex -7.19336434489255 1.35634737515151 21.2222136083898
      vertex -19.4487016257115 21.2775336875757 21.2222136083898
      vertex -18.9378464220408 21.2996136875757 21.2222136083897
   endloop
endfacet
facet normal 5.45601612011896e-016 4.28738888043969e-018 -1.0
   outer loop
      vertex -18.9378464220408 21.2996136875757 21.2222136083897
      vertex -19.4487016257115 21.2775336875757 21.2222136083898
      vertex -18.9378464220408 21.8516136875758 21.2222136083897
   endloop
endfacet
facet normal 5.45601612011896e-016 4.28738888043969e-018 -1.0
   outer loop
      vertex -7.19336434489255 1.35634737515151 21.2222136083898
      vertex -18.9378464220408 21.2996136875757 21.2222136083897
      vertex -15.6700064220409 21.2996136875757 21.2222136083898
   endloop
endfacet
facet normal 5.45601612011896e-016 4.28738888043969e-018 -1.0
   outer loop
      vertex -7.19336434489255 1.35634737515151 21.2222136083898
      vertex -15.6700064220409 21.2996136875757 21.2222136083898
      vertex -15.2234648770081 21.3437736875757 21.2222136083898
   endloop
endfacet
facet normal 5.45601612011896e-016 4.28738888043969e-018 -1.0
   outer loop
      vertex -15.2234648770081 21.3437736875757 21.2222136083898
      vertex -15.6700064220409 21.2996136875757 21.2222136083898
      vertex -15.2234648770081 21.8516136875758 21.2222136083898
   endloop
endfacet
facet normal 5.45601612011896e-016 4.28738888043969e-018 -1.0
   outer loop
      vertex -7.19336434489255 1.35634737515151 21.2222136083898
      vertex -15.2234648770081 21.3437736875757 21.2222136083898
      vertex -11.8452248770081 21.3437736875757 21.2222136083898
   endloop
endfacet
facet normal 5.45601612011896e-016 4.28738888043969e-018 -1.0
   outer loop
      vertex -7.19336434489255 1.35634737515151 21.2222136083898
      vertex -11.8452248770081 21.3437736875757 21.2222136083898
      vertex -11.4771975912138 21.3044270153808 21.2222136083898
   endloop
endfacet
facet normal 5.45601612011896e-016 4.28738888043969e-018 -1.0
   outer loop
      vertex -11.4771975912138 21.3044270153808 21.2222136083898
      vertex -11.8452248770081 21.3437736875757 21.2222136083898
      vertex -11.4771975912138 21.8516136875758 21.2222136083898
   endloop
endfacet
facet normal 5.45601612011896e-016 4.28738888043969e-018 -1.0
   outer loop
      vertex -7.19336434489255 1.35634737515151 21.2222136083898
      vertex -11.4771975912138 21.3044270153808 21.2222136083898
      vertex -7.19336434489255 21.3044270153808 21.2222136083898
   endloop
endfacet
facet normal -0.499832931571763 0.0 0.866121839302288
   outer loop
      vertex -4.65526639373796 21.3216936875757 18.8120041370066
      vertex -5.51584505326865 21.8516136875758 18.315370136197
      vertex -5.51584505326865 21.3216936875757 18.315370136197
   endloop
endfacet
facet normal -0.499832931571763 0.0 0.866121839302288
   outer loop
      vertex -5.51584505326865 21.8516136875758 18.315370136197
      vertex -4.65526639373796 21.3216936875757 18.8120041370066
      vertex -4.65526639373796 21.8516136875758 18.8120041370066
   endloop
endfacet
facet normal -0.00881108637626482 0.999958945060129 -0.00211493524806657
   outer loop
      vertex -7.19336434489255 21.3044270153808 21.2222136083898
      vertex -4.65526639373796 21.3216936875757 18.8120041370066
      vertex -5.51584505326865 21.3216936875757 18.315370136197
   endloop
endfacet
facet normal -0.00881108637626482 0.999958945060129 -0.00211493524806657
   outer loop
      vertex -4.65526639373796 21.3216936875757 18.8120041370066
      vertex -7.19336434489255 21.3044270153808 21.2222136083898
      vertex -6.33278568536183 21.3216936875757 21.7188476091995
   endloop
endfacet
facet normal 0.499832931571764 8.32751218438323e-018 -0.866121839302287
   outer loop
      vertex -6.33278568536183 21.8516136875758 21.7188476091995
      vertex -7.19336434489255 21.3044270153808 21.2222136083898
      vertex -7.19336434489255 21.8516136875758 21.2222136083898
   endloop
endfacet
facet normal 0.499832931571764 8.32751218438323e-018 -0.866121839302287
   outer loop
      vertex -7.19336434489255 21.3044270153808 21.2222136083898
      vertex -6.33278568536183 21.8516136875758 21.7188476091995
      vertex -6.33278568536183 21.3216936875757 21.7188476091995
   endloop
endfacet
facet normal 1.0 0.0 1.59644841629745e-014
   outer loop
      vertex -33.6655963055017 21.8516136875758 21.2222136083898
      vertex -33.6655963055017 21.1892136875757 21.9287736083898
      vertex -33.6655963055017 21.1892136875757 21.2222136083898
   endloop
endfacet
facet normal 1.0 0.0 1.59644841629745e-014
   outer loop
      vertex -33.6655963055017 21.1892136875757 21.9287736083898
      vertex -33.6655963055017 21.8516136875758 21.2222136083898
      vertex -33.6655963055017 21.8516136875758 21.9287736083898
   endloop
endfacet
facet normal -1.37255238188338e-015 0.0 -1.0
   outer loop
      vertex -34.4158003933157 21.8516136875758 21.8183736083898
      vertex -38.5248843448927 21.3023652437653 21.8183736083898
      vertex -38.5248843448927 21.8516136875758 21.8183736083898
   endloop
endfacet
facet normal -1.37255238188338e-015 0.0 -1.0
   outer loop
      vertex -38.5248843448927 21.3023652437653 21.8183736083898
      vertex -34.4158003933157 21.8516136875758 21.8183736083898
      vertex -34.4158003933157 21.3023652437653 21.8183736083898
   endloop
endfacet
facet normal 5.59339591111523e-015 0.0 -1.0
   outer loop
      vertex -19.4487016257114 21.8516136875758 21.8846136083898
      vertex -22.4736616257115 21.2775336875757 21.8846136083898
      vertex -22.4736616257115 21.8516136875758 21.8846136083898
   endloop
endfacet
facet normal 5.59339591111523e-015 0.0 -1.0
   outer loop
      vertex -22.4736616257115 21.2775336875757 21.8846136083898
      vertex -19.4487016257114 21.8516136875758 21.8846136083898
      vertex -19.4487016257114 21.2775336875757 21.8846136083898
   endloop
endfacet
facet normal 0.0 -1.0 0.0
   outer loop
      vertex -34.4158003933157 21.8516136875758 21.8183736083898
      vertex -38.5248843448926 21.8516136875758 21.6196536083898
      vertex -34.4158003933156 21.8516136875758 21.6196536083898
   endloop
endfacet
facet normal 0.0 -1.0 0.0
   outer loop
      vertex -38.5248843448926 21.8516136875758 21.6196536083898
      vertex -34.4158003933157 21.8516136875758 21.8183736083898
      vertex -38.5248843448927 21.8516136875758 21.8183736083898
   endloop
endfacet
facet normal -1.0 0.0 -2.83813051786206e-013
   outer loop
      vertex -34.4158003933157 21.8516136875758 21.8183736083898
      vertex -34.4158003933156 21.3023652437653 21.6196536083898
      vertex -34.4158003933157 21.3023652437653 21.8183736083898
   endloop
endfacet
facet normal -1.0 0.0 -2.83813051786206e-013
   outer loop
      vertex -34.4158003933156 21.3023652437653 21.6196536083898
      vertex -34.4158003933157 21.8516136875758 21.8183736083898
      vertex -34.4158003933156 21.8516136875758 21.6196536083898
   endloop
endfacet
facet normal 0.0 1.0 0.0
   outer loop
      vertex -38.5248843448926 21.3023652437653 21.6196536083898
      vertex -34.4158003933157 21.3023652437653 21.8183736083898
      vertex -34.4158003933156 21.3023652437653 21.6196536083898
   endloop
endfacet
facet normal 0.0 1.0 0.0
   outer loop
      vertex -34.4158003933157 21.3023652437653 21.8183736083898
      vertex -38.5248843448926 21.3023652437653 21.6196536083898
      vertex -38.5248843448927 21.3023652437653 21.8183736083898
   endloop
endfacet
facet normal 1.0 0.0 3.97338272500813e-013
   outer loop
      vertex -38.5248843448926 21.8516136875758 21.6196536083898
      vertex -38.5248843448927 21.3023652437653 21.8183736083898
      vertex -38.5248843448926 21.3023652437653 21.6196536083898
   endloop
endfacet
facet normal 1.0 0.0 3.97338272500813e-013
   outer loop
      vertex -38.5248843448927 21.3023652437653 21.8183736083898
      vertex -38.5248843448926 21.8516136875758 21.6196536083898
      vertex -38.5248843448927 21.8516136875758 21.8183736083898
   endloop
endfacet
facet normal 0.0 -1.0 0.0
   outer loop
      vertex -22.933307365302 21.8516136875758 21.9508536083897
      vertex -25.7595473653021 21.8516136875758 21.2222136083898
      vertex -22.9333073653021 21.8516136875758 21.2222136083898
   endloop
endfacet
facet normal 0.0 -1.0 0.0
   outer loop
      vertex -25.7595473653021 21.8516136875758 21.2222136083898
      vertex -22.933307365302 21.8516136875758 21.9508536083897
      vertex -25.7595473653021 21.8516136875758 21.9508536083898
   endloop
endfacet
facet normal -1.0 0.0 9.28842714936793e-014
   outer loop
      vertex -22.933307365302 21.8516136875758 21.9508536083897
      vertex -22.9333073653021 21.2333736875757 21.2222136083898
      vertex -22.933307365302 21.2333736875757 21.9508536083897
   endloop
endfacet
facet normal -1.0 0.0 9.28842714936793e-014
   outer loop
      vertex -22.9333073653021 21.2333736875757 21.2222136083898
      vertex -22.933307365302 21.8516136875758 21.9508536083897
      vertex -22.9333073653021 21.8516136875758 21.2222136083898
   endloop
endfacet
facet normal 0.0 1.0 0.0
   outer loop
      vertex -25.7595473653021 21.2333736875757 21.9508536083898
      vertex -22.9333073653021 21.2333736875757 21.2222136083898
      vertex -25.7595473653021 21.2333736875757 21.2222136083898
   endloop
endfacet
facet normal 0.0 1.0 0.0
   outer loop
      vertex -22.9333073653021 21.2333736875757 21.2222136083898
      vertex -25.7595473653021 21.2333736875757 21.9508536083898
      vertex -22.933307365302 21.2333736875757 21.9508536083897
   endloop
endfacet
facet normal 1.0 0.0 3.09614238312235e-014
   outer loop
      vertex -25.7595473653021 21.8516136875758 21.2222136083898
      vertex -25.7595473653021 21.2333736875757 21.9508536083898
      vertex -25.7595473653021 21.2333736875757 21.2222136083898
   endloop
endfacet
facet normal 1.0 0.0 3.09614238312235e-014
   outer loop
      vertex -25.7595473653021 21.2333736875757 21.9508536083898
      vertex -25.7595473653021 21.8516136875758 21.2222136083898
      vertex -25.7595473653021 21.8516136875758 21.9508536083898
   endloop
endfacet
facet normal -0.908028649166442 0.0 0.418908071410622
   outer loop
      vertex -39.1314193221103 43.71584 22.6617763101614
      vertex -44.3366400000001 0.0 11.3788963101614
      vertex -39.1314193221103 0.0 22.6617763101614
   endloop
endfacet
facet normal -0.908028649166442 0.0 0.418908071410622
   outer loop
      vertex -44.3366400000001 0.0 11.3788963101614
      vertex -39.1314193221103 43.71584 22.6617763101614
      vertex -44.3366400000001 43.71584 11.3788963101614
   endloop
endfacet
facet normal 0.0 -1.0 0.0
   outer loop
      vertex -3.13504732496176 21.8516136875758 16.1335592978859
      vertex -5.34500459428958 21.8516136875758 18.0193339144679
      vertex -3.97650201428061 21.8516136875758 15.6479616082053
   endloop
endfacet
facet normal 0.0 -1.0 0.0
   outer loop
      vertex -5.34500459428958 21.8516136875758 18.0193339144679
      vertex -3.13504732496176 21.8516136875758 16.1335592978859
      vertex -4.50354990497058 21.8516136875758 18.5049316041485
   endloop
endfacet
facet normal 1.0 0.0 -7.29804990307431e-014
   outer loop
      vertex -11.4771975912138 21.8516136875758 21.2222136083898
      vertex -11.4771975912138 21.3044270153808 21.8404536083898
      vertex -11.4771975912138 21.3044270153808 21.2222136083898
   endloop
endfacet
facet normal 1.0 0.0 -7.29804990307431e-014
   outer loop
      vertex -11.4771975912138 21.3044270153808 21.8404536083898
      vertex -11.4771975912138 21.8516136875758 21.2222136083898
      vertex -11.4771975912138 21.8516136875758 21.8404536083898
   endloop
endfacet
facet normal -0.000330785252671396 0.999999700444919 -0.000699779386392474
   outer loop
      vertex -40.3634883135388 21.2996136875757 18.1592878797313
      vertex -38.5248843448926 21.3023652437653 21.2222136083898
      vertex -40.0440942159341 21.2996136875757 18.0083105012427
   endloop
endfacet
facet normal -0.000330785252671396 0.999999700444919 -0.000699779386392474
   outer loop
      vertex -38.5248843448926 21.3023652437653 21.2222136083898
      vertex -40.3634883135388 21.2996136875757 18.1592878797313
      vertex -38.8442784424973 21.3023652437653 21.3731909868784
   endloop
endfacet
facet normal 0.427358974435602 0.0 0.904082024469766
   outer loop
      vertex -40.0440942159341 21.2996136875757 18.0083105012427
      vertex -40.3634883135388 21.8516136875758 18.1592878797313
      vertex -40.3634883135388 21.2996136875757 18.1592878797313
   endloop
endfacet
facet normal 0.427358974435602 0.0 0.904082024469766
   outer loop
      vertex -40.3634883135388 21.8516136875758 18.1592878797313
      vertex -40.0440942159341 21.2996136875757 18.0083105012427
      vertex -40.0440942159341 21.8516136875758 18.0083105012427
   endloop
endfacet
facet normal 0.0 -1.0 0.0
   outer loop
      vertex -38.5248843448926 21.8516136875758 21.2222136083898
      vertex -40.3634883135388 21.8516136875758 18.1592878797313
      vertex -40.0440942159341 21.8516136875758 18.0083105012427
   endloop
endfacet
facet normal 0.0 -1.0 0.0
   outer loop
      vertex -40.3634883135388 21.8516136875758 18.1592878797313
      vertex -38.5248843448926 21.8516136875758 21.2222136083898
      vertex -38.8442784424973 21.8516136875758 21.3731909868784
   endloop
endfacet
facet normal 0.0 -1.0 0.0
   outer loop
      vertex 0.0 0.0 11.3788963101614
      vertex -39.1314193221103 0.0 22.6617763101614
      vertex -44.3366400000001 0.0 11.3788963101614
   endloop
endfacet
facet normal 0.0 -1.0 0.0
   outer loop
      vertex -39.1314193221103 0.0 22.6617763101614
      vertex 0.0 0.0 11.3788963101614
      vertex -6.0935546511501 0.0 22.6617763101614
   endloop
endfacet
endsolid Top of one print burger box small skp
