solid bottom of one print burger box small skp
facet normal 0.0 -1.0 0.0
   outer loop
      vertex -21.8629783742886 21.8952663124242 1.45668270177169
      vertex -24.8879383742887 21.8952663124242 0.794282701771698
      vertex -21.8629783742886 21.8952663124242 0.794282701771687
   endloop
endfacet
facet normal 0.0 -1.0 0.0
   outer loop
      vertex -24.8879383742887 21.8952663124242 0.794282701771698
      vertex -21.8629783742886 21.8952663124242 1.45668270177169
      vertex -24.8879383742887 21.8952663124242 1.45668270177169
   endloop
endfacet
facet normal 0.0 1.0 0.0
   outer loop
      vertex -37.1432756551076 21.3480796402293 1.45668270177169
      vertex -32.8594424087863 21.3480796402293 0.838442701771683
      vertex -37.1432756551076 21.3480796402293 0.83844270177166
   endloop
endfacet
facet normal 0.0 1.0 0.0
   outer loop
      vertex -32.8594424087863 21.3480796402293 0.838442701771683
      vertex -37.1432756551076 21.3480796402293 1.45668270177169
      vertex -32.8594424087863 21.3480796402293 1.45668270177168
   endloop
endfacet
facet normal 0.90802864916644 0.0 -0.418908071410626
   outer loop
      vertex -5.20522067788983 43.7594926248485 0.0171200000000085
      vertex 0.0 0.0 11.3
      vertex -5.20522067788983 0.0 0.0171200000000085
   endloop
endfacet
facet normal 0.90802864916644 0.0 -0.418908071410626
   outer loop
      vertex 0.0 0.0 11.3
      vertex -5.20522067788983 43.7594926248485 0.0171200000000085
      vertex 0.0 43.7594926248485 11.3
   endloop
endfacet
facet normal 3.99112104074365e-015 0.0 1.0
   outer loop
      vertex -18.577092634698 21.2770263124242 0.728042701771687
      vertex -21.403332634698 21.8952663124242 0.728042701771698
      vertex -21.403332634698 21.2770263124242 0.728042701771698
   endloop
endfacet
facet normal 3.99112104074365e-015 0.0 1.0
   outer loop
      vertex -21.403332634698 21.8952663124242 0.728042701771698
      vertex -18.577092634698 21.2770263124242 0.728042701771687
      vertex -18.577092634698 21.8952663124242 0.728042701771687
   endloop
endfacet
facet normal 1.79988455634672e-016 9.40935157958672e-021 1.0
   outer loop
      vertex -5.81175565510746 1.4 1.45668270177168
      vertex -37.1432756551076 21.3480796402293 1.45668270177169
      vertex -37.1432756551076 1.4 1.45668270177169
   endloop
endfacet
facet normal 1.79988455634672e-016 9.40935157958672e-021 1.0
   outer loop
      vertex -37.1432756551076 21.3480796402293 1.45668270177169
      vertex -5.81175565510746 1.4 1.45668270177168
      vertex -32.8594424087863 21.3480796402293 1.45668270177168
   endloop
endfacet
facet normal 1.79988455634672e-016 9.40935157958672e-021 1.0
   outer loop
      vertex -32.8594424087863 21.3480796402293 1.45668270177168
      vertex -5.81175565510746 1.4 1.45668270177168
      vertex -32.491415122992 21.3874263124242 1.45668270177168
   endloop
endfacet
facet normal 1.79988455634672e-016 9.40935157958672e-021 1.0
   outer loop
      vertex -32.8594424087863 21.3480796402293 1.45668270177168
      vertex -32.491415122992 21.3874263124242 1.45668270177168
      vertex -32.8594424087863 21.8952663124242 1.45668270177168
   endloop
endfacet
facet normal 1.79988455634672e-016 9.40935157958672e-021 1.0
   outer loop
      vertex -32.491415122992 21.3874263124242 1.45668270177168
      vertex -5.81175565510746 1.4 1.45668270177168
      vertex -29.113175122992 21.3874263124242 1.45668270177168
   endloop
endfacet
facet normal 1.79988455634672e-016 9.40935157958672e-021 1.0
   outer loop
      vertex -29.113175122992 21.3874263124242 1.45668270177168
      vertex -5.81175565510746 1.4 1.45668270177168
      vertex -28.6666335779592 21.3432663124242 1.45668270177167
   endloop
endfacet
facet normal 1.79988455634672e-016 9.40935157958672e-021 1.0
   outer loop
      vertex -29.113175122992 21.3874263124242 1.45668270177168
      vertex -28.6666335779592 21.3432663124242 1.45668270177167
      vertex -29.113175122992 21.8952663124242 1.45668270177168
   endloop
endfacet
facet normal 1.79988455634672e-016 9.40935157958672e-021 1.0
   outer loop
      vertex -28.6666335779592 21.3432663124242 1.45668270177167
      vertex -5.81175565510746 1.4 1.45668270177168
      vertex -25.3987935779592 21.3432663124242 1.45668270177167
   endloop
endfacet
facet normal 1.79988455634672e-016 9.40935157958672e-021 1.0
   outer loop
      vertex -25.3987935779592 21.3432663124242 1.45668270177167
      vertex -5.81175565510746 1.4 1.45668270177168
      vertex -24.8879383742887 21.3211863124242 1.45668270177169
   endloop
endfacet
facet normal 1.79988455634672e-016 9.40935157958672e-021 1.0
   outer loop
      vertex -25.3987935779592 21.3432663124242 1.45668270177167
      vertex -24.8879383742887 21.3211863124242 1.45668270177169
      vertex -25.3987935779592 21.8952663124242 1.45668270177167
   endloop
endfacet
facet normal 1.79988455634672e-016 9.40935157958672e-021 1.0
   outer loop
      vertex -24.8879383742887 21.3211863124242 1.45668270177169
      vertex -5.81175565510746 1.4 1.45668270177168
      vertex -21.8629783742886 21.3211863124242 1.45668270177169
   endloop
endfacet
facet normal 1.79988455634672e-016 9.40935157958672e-021 1.0
   outer loop
      vertex -21.8629783742886 21.3211863124242 1.45668270177169
      vertex -5.81175565510746 1.4 1.45668270177168
      vertex -21.403332634698 21.2770263124242 1.45668270177169
   endloop
endfacet
facet normal 1.79988455634672e-016 9.40935157958672e-021 1.0
   outer loop
      vertex -21.8629783742886 21.3211863124242 1.45668270177169
      vertex -21.403332634698 21.2770263124242 1.45668270177169
      vertex -21.8629783742886 21.8952663124242 1.45668270177169
   endloop
endfacet
facet normal 1.79988455634672e-016 9.40935157958672e-021 1.0
   outer loop
      vertex -21.403332634698 21.2770263124242 1.45668270177169
      vertex -5.81175565510746 1.4 1.45668270177168
      vertex -18.577092634698 21.2770263124242 1.45668270177167
   endloop
endfacet
facet normal 1.79988455634672e-016 9.40935157958672e-021 1.0
   outer loop
      vertex -18.577092634698 21.2770263124242 1.45668270177167
      vertex -5.81175565510746 1.4 1.45668270177168
      vertex -18.577092634698 21.8952663124242 1.45668270177167
   endloop
endfacet
facet normal 1.79988455634672e-016 9.40935157958672e-021 1.0
   outer loop
      vertex -18.577092634698 21.8952663124242 1.45668270177167
      vertex -5.81175565510746 1.4 1.45668270177168
      vertex -17.9773743682715 21.2770263124242 1.45668270177169
   endloop
endfacet
facet normal 1.79988455634672e-016 9.40935157958672e-021 1.0
   outer loop
      vertex -17.9773743682715 21.2770263124242 1.45668270177169
      vertex -5.81175565510746 1.4 1.45668270177168
      vertex -14.4004143682716 21.2770263124242 1.45668270177168
   endloop
endfacet
facet normal 1.79988455634672e-016 9.40935157958672e-021 1.0
   outer loop
      vertex -14.4004143682716 21.2770263124242 1.45668270177168
      vertex -5.81175565510746 1.4 1.45668270177168
      vertex -14.4004143682716 21.8952663124242 1.45668270177168
   endloop
endfacet
facet normal 1.79988455634672e-016 9.40935157958672e-021 1.0
   outer loop
      vertex -14.4004143682716 21.8952663124242 1.45668270177168
      vertex -5.81175565510746 1.4 1.45668270177168
      vertex -13.8505636944985 21.2328663124242 1.45668270177168
   endloop
endfacet
facet normal 1.79988455634672e-016 9.40935157958672e-021 1.0
   outer loop
      vertex -13.8505636944985 21.2328663124242 1.45668270177168
      vertex -5.81175565510746 1.4 1.45668270177168
      vertex -10.6710436944984 21.2328663124242 1.45668270177169
   endloop
endfacet
facet normal 1.79988455634672e-016 9.40935157958672e-021 1.0
   outer loop
      vertex -10.6710436944984 21.2328663124242 1.45668270177169
      vertex -5.81175565510746 1.4 1.45668270177168
      vertex -10.6710436944984 21.8952663124242 1.45668270177169
   endloop
endfacet
facet normal 1.79988455634672e-016 9.40935157958672e-021 1.0
   outer loop
      vertex -10.6710436944984 21.8952663124242 1.45668270177169
      vertex -5.81175565510746 1.4 1.45668270177168
      vertex -9.92083960668448 21.3460178686138 1.45668270177169
   endloop
endfacet
facet normal 1.79988455634672e-016 9.40935157958672e-021 1.0
   outer loop
      vertex -9.92083960668448 21.3460178686138 1.45668270177169
      vertex -5.81175565510746 1.4 1.45668270177168
      vertex -5.81175565510746 21.3460178686138 1.45668270177168
   endloop
endfacet
facet normal 1.79988455634672e-016 9.40935157958672e-021 1.0
   outer loop
      vertex -32.8594424087863 21.8952663124242 1.45668270177168
      vertex -37.1432756551076 42.3905326248485 1.45668270177169
      vertex -37.1432756551076 21.8952663124242 1.45668270177169
   endloop
endfacet
facet normal 1.79988455634672e-016 9.40935157958672e-021 1.0
   outer loop
      vertex -37.1432756551076 42.3905326248485 1.45668270177169
      vertex -32.8594424087863 21.8952663124242 1.45668270177168
      vertex -5.81175565510746 42.3905326248485 1.45668270177168
   endloop
endfacet
facet normal 1.79988455634672e-016 9.40935157958672e-021 1.0
   outer loop
      vertex -5.81175565510746 42.3905326248485 1.45668270177168
      vertex -32.8594424087863 21.8952663124242 1.45668270177168
      vertex -32.491415122992 21.8952663124242 1.45668270177168
   endloop
endfacet
facet normal 1.79988455634672e-016 9.40935157958672e-021 1.0
   outer loop
      vertex -32.491415122992 21.8952663124242 1.45668270177168
      vertex -32.8594424087863 21.8952663124242 1.45668270177168
      vertex -32.491415122992 21.3874263124242 1.45668270177168
   endloop
endfacet
facet normal 1.79988455634672e-016 9.40935157958672e-021 1.0
   outer loop
      vertex -5.81175565510746 42.3905326248485 1.45668270177168
      vertex -32.491415122992 21.8952663124242 1.45668270177168
      vertex -29.113175122992 21.8952663124242 1.45668270177168
   endloop
endfacet
facet normal 1.79988455634672e-016 9.40935157958672e-021 1.0
   outer loop
      vertex -5.81175565510746 42.3905326248485 1.45668270177168
      vertex -29.113175122992 21.8952663124242 1.45668270177168
      vertex -28.6666335779592 21.8952663124242 1.45668270177167
   endloop
endfacet
facet normal 1.79988455634672e-016 9.40935157958672e-021 1.0
   outer loop
      vertex -28.6666335779592 21.8952663124242 1.45668270177167
      vertex -29.113175122992 21.8952663124242 1.45668270177168
      vertex -28.6666335779592 21.3432663124242 1.45668270177167
   endloop
endfacet
facet normal 1.79988455634672e-016 9.40935157958672e-021 1.0
   outer loop
      vertex -5.81175565510746 42.3905326248485 1.45668270177168
      vertex -28.6666335779592 21.8952663124242 1.45668270177167
      vertex -25.3987935779592 21.8952663124242 1.45668270177167
   endloop
endfacet
facet normal 1.79988455634672e-016 9.40935157958672e-021 1.0
   outer loop
      vertex -5.81175565510746 42.3905326248485 1.45668270177168
      vertex -25.3987935779592 21.8952663124242 1.45668270177167
      vertex -24.8879383742887 21.8952663124242 1.45668270177169
   endloop
endfacet
facet normal 1.79988455634672e-016 9.40935157958672e-021 1.0
   outer loop
      vertex -24.8879383742887 21.8952663124242 1.45668270177169
      vertex -25.3987935779592 21.8952663124242 1.45668270177167
      vertex -24.8879383742887 21.3211863124242 1.45668270177169
   endloop
endfacet
facet normal 1.79988455634672e-016 9.40935157958672e-021 1.0
   outer loop
      vertex -5.81175565510746 42.3905326248485 1.45668270177168
      vertex -24.8879383742887 21.8952663124242 1.45668270177169
      vertex -21.8629783742886 21.8952663124242 1.45668270177169
   endloop
endfacet
facet normal 1.79988455634672e-016 9.40935157958672e-021 1.0
   outer loop
      vertex -5.81175565510746 42.3905326248485 1.45668270177168
      vertex -21.8629783742886 21.8952663124242 1.45668270177169
      vertex -21.403332634698 21.8952663124242 1.45668270177169
   endloop
endfacet
facet normal 1.79988455634672e-016 9.40935157958672e-021 1.0
   outer loop
      vertex -21.403332634698 21.8952663124242 1.45668270177169
      vertex -21.8629783742886 21.8952663124242 1.45668270177169
      vertex -21.403332634698 21.2770263124242 1.45668270177169
   endloop
endfacet
facet normal 1.79988455634672e-016 9.40935157958672e-021 1.0
   outer loop
      vertex -5.81175565510746 42.3905326248485 1.45668270177168
      vertex -21.403332634698 21.8952663124242 1.45668270177169
      vertex -18.577092634698 21.8952663124242 1.45668270177167
   endloop
endfacet
facet normal 1.79988455634672e-016 9.40935157958672e-021 1.0
   outer loop
      vertex -5.81175565510746 42.3905326248485 1.45668270177168
      vertex -18.577092634698 21.8952663124242 1.45668270177167
      vertex -17.9773743682715 21.8952663124242 1.45668270177169
   endloop
endfacet
facet normal 1.79988455634672e-016 9.40935157958672e-021 1.0
   outer loop
      vertex -17.9773743682715 21.8952663124242 1.45668270177169
      vertex -18.577092634698 21.8952663124242 1.45668270177167
      vertex -17.9773743682715 21.2770263124242 1.45668270177169
   endloop
endfacet
facet normal 1.79988455634672e-016 9.40935157958672e-021 1.0
   outer loop
      vertex -5.81175565510746 42.3905326248485 1.45668270177168
      vertex -17.9773743682715 21.8952663124242 1.45668270177169
      vertex -14.4004143682716 21.8952663124242 1.45668270177168
   endloop
endfacet
facet normal 1.79988455634672e-016 9.40935157958672e-021 1.0
   outer loop
      vertex -5.81175565510746 42.3905326248485 1.45668270177168
      vertex -14.4004143682716 21.8952663124242 1.45668270177168
      vertex -13.8505636944985 21.8952663124242 1.45668270177168
   endloop
endfacet
facet normal 1.79988455634672e-016 9.40935157958672e-021 1.0
   outer loop
      vertex -13.8505636944985 21.8952663124242 1.45668270177168
      vertex -14.4004143682716 21.8952663124242 1.45668270177168
      vertex -13.8505636944985 21.2328663124242 1.45668270177168
   endloop
endfacet
facet normal 1.79988455634672e-016 9.40935157958672e-021 1.0
   outer loop
      vertex -5.81175565510746 42.3905326248485 1.45668270177168
      vertex -13.8505636944985 21.8952663124242 1.45668270177168
      vertex -10.6710436944984 21.8952663124242 1.45668270177169
   endloop
endfacet
facet normal 1.79988455634672e-016 9.40935157958672e-021 1.0
   outer loop
      vertex -5.81175565510746 42.3905326248485 1.45668270177168
      vertex -10.6710436944984 21.8952663124242 1.45668270177169
      vertex -9.92083960668448 21.8952663124242 1.45668270177169
   endloop
endfacet
facet normal 1.79988455634672e-016 9.40935157958672e-021 1.0
   outer loop
      vertex -9.92083960668448 21.8952663124242 1.45668270177169
      vertex -10.6710436944984 21.8952663124242 1.45668270177169
      vertex -9.92083960668448 21.3460178686138 1.45668270177169
   endloop
endfacet
facet normal 1.79988455634672e-016 9.40935157958672e-021 1.0
   outer loop
      vertex -5.81175565510746 42.3905326248485 1.45668270177168
      vertex -9.92083960668448 21.8952663124242 1.45668270177169
      vertex -5.81175565510746 21.8952663124242 1.45668270177168
   endloop
endfacet
facet normal 0.0 1.0 0.0
   outer loop
      vertex -1.98806538643336 21.3511782011882 9.54573627462348
      vertex -0.839431987222027 21.3511782011882 11.1490226215114
      vertex -1.66867128882864 21.3511782011882 9.39475889613487
   endloop
endfacet
facet normal 0.0 1.0 0.0
   outer loop
      vertex -0.839431987222027 21.3511782011882 11.1490226215114
      vertex -1.98806538643336 21.3511782011882 9.54573627462348
      vertex -1.15882608482668 21.3511782011882 11.3
   endloop
endfacet
facet normal 0.0 -1.0 0.0
   outer loop
      vertex -2.62740807494211 21.8952663124242 7.36654199565244
      vertex -4.14518511430002 21.8952663124242 4.98232872440386
      vertex -3.8257910166953 21.8952663124242 4.83135134591526
   endloop
endfacet
facet normal 0.0 -1.0 0.0
   outer loop
      vertex -4.14518511430002 21.8952663124242 4.98232872440386
      vertex -2.62740807494211 21.8952663124242 7.36654199565244
      vertex -2.94680217254674 21.8952663124242 7.51751937414104
   endloop
endfacet
facet normal 0.0 -1.0 0.0
   outer loop
      vertex -1.80385098890582 21.8952663124242 9.16045110595629
      vertex -2.81098941707544 21.8952663124242 7.80483256576741
      vertex -2.51155745057114 21.8952663124242 7.66329127343436
   endloop
endfacet
facet normal 0.0 -1.0 0.0
   outer loop
      vertex -2.81098941707544 21.8952663124242 7.80483256576741
      vertex -1.80385098890582 21.8952663124242 9.16045110595629
      vertex -2.10328295541022 21.8952663124242 9.30199239828938
   endloop
endfacet
facet normal -1.02426709860336e-015 0.0 -1.0
   outer loop
      vertex -5.20522067788983 43.7594926248485 0.0171200000000085
      vertex -38.24308534885 0.0 0.0171200000000423
      vertex -38.24308534885 43.7594926248485 0.0171200000000423
   endloop
endfacet
facet normal -1.02426709860336e-015 0.0 -1.0
   outer loop
      vertex -38.24308534885 0.0 0.0171200000000423
      vertex -5.20522067788983 43.7594926248485 0.0171200000000085
      vertex -5.20522067788983 0.0 0.0171200000000085
   endloop
endfacet
facet normal 0.0 -1.0 0.0
   outer loop
      vertex -32.8594424087863 21.8952663124242 0.838442701771683
      vertex -37.1432756551076 21.8952663124242 1.45668270177169
      vertex -37.1432756551076 21.8952663124242 0.83844270177166
   endloop
endfacet
facet normal 0.0 -1.0 0.0
   outer loop
      vertex -37.1432756551076 21.8952663124242 1.45668270177169
      vertex -32.8594424087863 21.8952663124242 0.838442701771683
      vertex -32.8594424087863 21.8952663124242 1.45668270177168
   endloop
endfacet
facet normal 0.427358974435553 0.0 0.904082024469789
   outer loop
      vertex -1.66867128882864 21.3511782011882 9.39475889613487
      vertex -1.98806538643336 21.8952663124242 9.54573627462348
      vertex -1.98806538643336 21.3511782011882 9.54573627462348
   endloop
endfacet
facet normal 0.427358974435553 0.0 0.904082024469789
   outer loop
      vertex -1.98806538643336 21.8952663124242 9.54573627462348
      vertex -1.66867128882864 21.3511782011882 9.39475889613487
      vertex -1.66867128882864 21.8952663124242 9.39475889613487
   endloop
endfacet
facet normal 0.8661218393023 5.31260928615166e-018 0.499832931571742
   outer loop
      vertex -37.1432756551076 42.3905326248485 1.45668270177169
      vertex -38.8207949467315 21.8952663124242 4.36352617396449
      vertex -37.1432756551076 21.8952663124242 1.45668270177169
   endloop
endfacet
facet normal 0.8661218393023 5.31260928615166e-018 0.499832931571742
   outer loop
      vertex -38.8207949467315 21.8952663124242 4.36352617396449
      vertex -37.1432756551076 42.3905326248485 1.45668270177169
      vertex -38.9916354057105 21.8952663124242 4.65956239569355
   endloop
endfacet
facet normal 0.8661218393023 5.31260928615166e-018 0.499832931571742
   outer loop
      vertex -38.9916354057105 21.8952663124242 4.65956239569355
      vertex -37.1432756551076 42.3905326248485 1.45668270177169
      vertex -40.3601379857195 21.8952663124242 7.03093470195611
   endloop
endfacet
facet normal 0.8661218393023 5.31260928615166e-018 0.499832931571742
   outer loop
      vertex -40.3601379857195 21.8952663124242 7.03093470195611
      vertex -37.1432756551076 42.3905326248485 1.45668270177169
      vertex -40.5748965246069 21.8952663124242 7.40307316854763
   endloop
endfacet
facet normal 0.8661218393023 5.31260928615166e-018 0.499832931571742
   outer loop
      vertex -40.5748965246069 21.8952663124242 7.40307316854763
      vertex -37.1432756551076 42.3905326248485 1.45668270177169
      vertex -41.546091903968 21.8952663124242 9.08598254718558
   endloop
endfacet
facet normal 0.8661218393023 5.31260928615166e-018 0.499832931571742
   outer loop
      vertex -41.546091903968 21.8952663124242 9.08598254718558
      vertex -37.1432756551076 42.3905326248485 1.45668270177169
      vertex -41.7326428652051 21.8952663124242 9.40924228351829
   endloop
endfacet
facet normal 0.8661218393023 5.31260928615166e-018 0.499832931571742
   outer loop
      vertex -41.7326428652051 21.8952663124242 9.40924228351829
      vertex -37.1432756551076 42.3905326248485 1.45668270177169
      vertex -42.8237860848268 21.8952663124242 11.3
   endloop
endfacet
facet normal 0.8661218393023 5.31260928615166e-018 0.499832931571742
   outer loop
      vertex -42.8237860848268 21.8952663124242 11.3
      vertex -37.1432756551076 42.3905326248485 1.45668270177169
      vertex -42.8237860848268 42.3905326248485 11.3
   endloop
endfacet
facet normal 0.8661218393023 5.31260928615166e-018 0.499832931571742
   outer loop
      vertex -41.546091903968 21.8952663124242 9.08598254718558
      vertex -41.7326428652051 21.3508565273329 9.40924228351829
      vertex -41.546091903968 21.3211863124242 9.08598254718558
   endloop
endfacet
facet normal 0.8661218393023 5.31260928615166e-018 0.499832931571742
   outer loop
      vertex -41.7326428652051 21.3508565273329 9.40924228351829
      vertex -41.546091903968 21.8952663124242 9.08598254718558
      vertex -41.7326428652051 21.8952663124242 9.40924228351829
   endloop
endfacet
facet normal 0.8661218393023 5.31260928615166e-018 0.499832931571742
   outer loop
      vertex -40.3601379857195 21.8952663124242 7.03093470195611
      vertex -40.5748965246069 21.3211863124242 7.40307316854763
      vertex -40.3601379857195 21.3211863124242 7.03093470195611
   endloop
endfacet
facet normal 0.8661218393023 5.31260928615166e-018 0.499832931571742
   outer loop
      vertex -40.5748965246069 21.3211863124242 7.40307316854763
      vertex -40.3601379857195 21.8952663124242 7.03093470195611
      vertex -40.5748965246069 21.8952663124242 7.40307316854763
   endloop
endfacet
facet normal 0.8661218393023 5.31260928615166e-018 0.499832931571742
   outer loop
      vertex -37.1432756551076 21.3480796402293 1.45668270177169
      vertex -42.8237860848268 1.4 11.3
      vertex -37.1432756551076 1.4 1.45668270177169
   endloop
endfacet
facet normal 0.8661218393023 5.31260928615166e-018 0.499832931571742
   outer loop
      vertex -42.8237860848268 1.4 11.3
      vertex -37.1432756551076 21.3480796402293 1.45668270177169
      vertex -38.9916354057105 21.3211863124242 4.65956239569355
   endloop
endfacet
facet normal 0.8661218393023 5.31260928615166e-018 0.499832931571742
   outer loop
      vertex -38.9916354057105 21.3211863124242 4.65956239569355
      vertex -37.1432756551076 21.3480796402293 1.45668270177169
      vertex -38.8207949467315 21.3653463124242 4.36352617396449
   endloop
endfacet
facet normal 0.8661218393023 5.31260928615166e-018 0.499832931571742
   outer loop
      vertex -38.9916354057105 21.3211863124242 4.65956239569355
      vertex -38.8207949467315 21.3653463124242 4.36352617396449
      vertex -38.9916354057105 21.8952663124242 4.65956239569355
   endloop
endfacet
facet normal 0.8661218393023 5.31260928615166e-018 0.499832931571742
   outer loop
      vertex -38.9916354057105 21.8952663124242 4.65956239569355
      vertex -38.8207949467315 21.3653463124242 4.36352617396449
      vertex -38.8207949467315 21.8952663124242 4.36352617396449
   endloop
endfacet
facet normal 0.8661218393023 5.31260928615166e-018 0.499832931571742
   outer loop
      vertex -42.8237860848268 1.4 11.3
      vertex -41.546091903968 21.3211863124242 9.08598254718558
      vertex -42.8237860848268 21.3508565273329 11.3
   endloop
endfacet
facet normal 0.8661218393023 5.31260928615166e-018 0.499832931571742
   outer loop
      vertex -41.546091903968 21.3211863124242 9.08598254718558
      vertex -42.8237860848268 1.4 11.3
      vertex -38.9916354057105 21.3211863124242 4.65956239569355
   endloop
endfacet
facet normal 0.8661218393023 5.31260928615166e-018 0.499832931571742
   outer loop
      vertex -41.546091903968 21.3211863124242 9.08598254718558
      vertex -38.9916354057105 21.3211863124242 4.65956239569355
      vertex -40.3601379857195 21.3211863124242 7.03093470195611
   endloop
endfacet
facet normal 0.8661218393023 5.31260928615166e-018 0.499832931571742
   outer loop
      vertex -41.546091903968 21.3211863124242 9.08598254718558
      vertex -40.3601379857195 21.3211863124242 7.03093470195611
      vertex -40.5748965246069 21.3211863124242 7.40307316854763
   endloop
endfacet
facet normal 0.8661218393023 5.31260928615166e-018 0.499832931571742
   outer loop
      vertex -42.8237860848268 21.3508565273329 11.3
      vertex -41.546091903968 21.3211863124242 9.08598254718558
      vertex -41.7326428652051 21.3508565273329 9.40924228351829
   endloop
endfacet
facet normal -0.904082024469788 0.0 0.427358974435555
   outer loop
      vertex -2.62740807494211 21.8952663124242 7.36654199565244
      vertex -3.8257910166953 21.3432663124242 4.83135134591526
      vertex -2.62740807494211 21.3432663124242 7.36654199565244
   endloop
endfacet
facet normal -0.904082024469788 0.0 0.427358974435555
   outer loop
      vertex -3.8257910166953 21.3432663124242 4.83135134591526
      vertex -2.62740807494211 21.8952663124242 7.36654199565244
      vertex -3.8257910166953 21.8952663124242 4.83135134591526
   endloop
endfacet
facet normal -1.0 0.0 -5.89457876786775e-014
   outer loop
      vertex -29.113175122992 21.8952663124242 1.45668270177168
      vertex -29.113175122992 21.3874263124242 0.882602701771685
      vertex -29.113175122992 21.3874263124242 1.45668270177168
   endloop
endfacet
facet normal -1.0 0.0 -5.89457876786775e-014
   outer loop
      vertex -29.113175122992 21.3874263124242 0.882602701771685
      vertex -29.113175122992 21.8952663124242 1.45668270177168
      vertex -29.113175122992 21.8952663124242 0.882602701771685
   endloop
endfacet
facet normal -0.427358974435575 0.0 -0.904082024469779
   outer loop
      vertex -0.839431987222027 21.8952663124242 11.1490226215114
      vertex -1.15882608482668 21.3511782011882 11.3
      vertex -1.15882608482668 21.8952663124242 11.3
   endloop
endfacet
facet normal -0.427358974435575 0.0 -0.904082024469779
   outer loop
      vertex -1.15882608482668 21.3511782011882 11.3
      vertex -0.839431987222027 21.8952663124242 11.1490226215114
      vertex -0.839431987222027 21.3511782011882 11.1490226215114
   endloop
endfacet
facet normal 0.427358974435627 0.0 0.904082024469754
   outer loop
      vertex -5.49236155750281 21.3460178686138 1.30570532328307
      vertex -5.81175565510746 21.8952663124242 1.45668270177168
      vertex -5.81175565510746 21.3460178686138 1.45668270177168
   endloop
endfacet
facet normal 0.427358974435627 0.0 0.904082024469754
   outer loop
      vertex -5.81175565510746 21.8952663124242 1.45668270177168
      vertex -5.49236155750281 21.3460178686138 1.30570532328307
      vertex -5.49236155750281 21.8952663124242 1.30570532328307
   endloop
endfacet
facet normal 0.0 -1.0 0.0
   outer loop
      vertex -25.3987935779592 21.8952663124242 1.45668270177167
      vertex -28.6666335779592 21.8952663124242 0.816362701771662
      vertex -25.3987935779592 21.8952663124242 0.816362701771662
   endloop
endfacet
facet normal 0.0 -1.0 0.0
   outer loop
      vertex -28.6666335779592 21.8952663124242 0.816362701771662
      vertex -25.3987935779592 21.8952663124242 1.45668270177167
      vertex -28.6666335779592 21.8952663124242 1.45668270177167
   endloop
endfacet
facet normal 1.0 0.0 0.0
   outer loop
      vertex -28.6666335779592 21.8952663124242 0.816362701771662
      vertex -28.6666335779592 21.3432663124242 1.45668270177167
      vertex -28.6666335779592 21.3432663124242 0.816362701771662
   endloop
endfacet
facet normal 1.0 0.0 0.0
   outer loop
      vertex -28.6666335779592 21.3432663124242 1.45668270177167
      vertex -28.6666335779592 21.8952663124242 0.816362701771662
      vertex -28.6666335779592 21.8952663124242 1.45668270177167
   endloop
endfacet
facet normal 0.0 1.0 0.0
   outer loop
      vertex -32.491415122992 21.3874263124242 1.45668270177168
      vertex -29.113175122992 21.3874263124242 0.882602701771685
      vertex -32.491415122992 21.3874263124242 0.882602701771685
   endloop
endfacet
facet normal 0.0 1.0 0.0
   outer loop
      vertex -29.113175122992 21.3874263124242 0.882602701771685
      vertex -32.491415122992 21.3874263124242 1.45668270177168
      vertex -29.113175122992 21.3874263124242 1.45668270177168
   endloop
endfacet
facet normal -0.904082024469775 0.0 0.427358974435583
   outer loop
      vertex -1.80385098890582 21.8952663124242 9.16045110595629
      vertex -2.51155745057114 21.3432663124242 7.66329127343436
      vertex -1.80385098890582 21.3432663124242 9.16045110595629
   endloop
endfacet
facet normal -0.904082024469775 0.0 0.427358974435583
   outer loop
      vertex -2.51155745057114 21.3432663124242 7.66329127343436
      vertex -1.80385098890582 21.8952663124242 9.16045110595629
      vertex -2.51155745057114 21.8952663124242 7.66329127343436
   endloop
endfacet
facet normal 7.80338496752282e-016 -3.85076071459831e-016 1.0
   outer loop
      vertex -44.3366400000001 0.0 11.3
      vertex -42.8237860848268 1.4 11.3
      vertex -44.3366400000001 43.7594926248485 11.3
   endloop
endfacet
facet normal 7.80338496752282e-016 -3.85076071459831e-016 1.0
   outer loop
      vertex -42.8237860848268 1.4 11.3
      vertex -44.3366400000001 0.0 11.3
      vertex 0.0 0.0 11.3
   endloop
endfacet
facet normal 7.80338496752282e-016 -3.85076071459831e-016 1.0
   outer loop
      vertex -42.8237860848268 1.4 11.3
      vertex 0.0 0.0 11.3
      vertex -1.15882608482668 1.4 11.3
   endloop
endfacet
facet normal 7.80338496752282e-016 -3.85076071459831e-016 1.0
   outer loop
      vertex -1.15882608482668 1.4 11.3
      vertex 0.0 0.0 11.3
      vertex -1.15882608482668 21.3511782011882 11.3
   endloop
endfacet
facet normal 7.80338496752282e-016 -3.85076071459831e-016 1.0
   outer loop
      vertex -1.15882608482668 21.3511782011882 11.3
      vertex 0.0 0.0 11.3
      vertex -1.15882608482668 21.8952663124242 11.3
   endloop
endfacet
facet normal 7.80338496752282e-016 -3.85076071459831e-016 1.0
   outer loop
      vertex -1.15882608482668 21.8952663124242 11.3
      vertex 0.0 0.0 11.3
      vertex -1.15882608482668 42.3905326248485 11.3
   endloop
endfacet
facet normal 7.80338496752282e-016 -3.85076071459831e-016 1.0
   outer loop
      vertex -44.3366400000001 43.7594926248485 11.3
      vertex -42.8237860848268 42.3905326248485 11.3
      vertex 0.0 43.7594926248485 11.3
   endloop
endfacet
facet normal 7.80338496752282e-016 -3.85076071459831e-016 1.0
   outer loop
      vertex -42.8237860848268 42.3905326248485 11.3
      vertex -44.3366400000001 43.7594926248485 11.3
      vertex -42.8237860848268 1.4 11.3
   endloop
endfacet
facet normal 7.80338496752282e-016 -3.85076071459831e-016 1.0
   outer loop
      vertex -42.8237860848268 42.3905326248485 11.3
      vertex -42.8237860848268 1.4 11.3
      vertex -42.8237860848268 21.3508565273329 11.3
   endloop
endfacet
facet normal 7.80338496752282e-016 -3.85076071459831e-016 1.0
   outer loop
      vertex -42.8237860848268 42.3905326248485 11.3
      vertex -42.8237860848268 21.3508565273329 11.3
      vertex -42.8237860848268 21.8952663124242 11.3
   endloop
endfacet
facet normal 7.80338496752282e-016 -3.85076071459831e-016 1.0
   outer loop
      vertex 0.0 43.7594926248485 11.3
      vertex -42.8237860848268 42.3905326248485 11.3
      vertex -1.15882608482668 42.3905326248485 11.3
   endloop
endfacet
facet normal 7.80338496752282e-016 -3.85076071459831e-016 1.0
   outer loop
      vertex 0.0 43.7594926248485 11.3
      vertex -1.15882608482668 42.3905326248485 11.3
      vertex 0.0 0.0 11.3
   endloop
endfacet
facet normal 1.0 0.0 0.0
   outer loop
      vertex -9.92083960668448 21.8952663124242 1.05924270177168
      vertex -9.92083960668448 21.3460178686138 1.45668270177169
      vertex -9.92083960668448 21.3460178686138 1.05924270177168
   endloop
endfacet
facet normal 1.0 0.0 0.0
   outer loop
      vertex -9.92083960668448 21.3460178686138 1.45668270177169
      vertex -9.92083960668448 21.8952663124242 1.05924270177168
      vertex -9.92083960668448 21.8952663124242 1.45668270177169
   endloop
endfacet
facet normal 0.0 1.0 0.0
   outer loop
      vertex -9.92083960668448 21.3460178686138 1.45668270177169
      vertex -5.81175565510746 21.3460178686138 1.05924270177168
      vertex -9.92083960668448 21.3460178686138 1.05924270177168
   endloop
endfacet
facet normal 0.0 1.0 0.0
   outer loop
      vertex -5.81175565510746 21.3460178686138 1.05924270177168
      vertex -9.92083960668448 21.3460178686138 1.45668270177169
      vertex -5.81175565510746 21.3460178686138 1.45668270177168
   endloop
endfacet
facet normal -0.904082024469783 -1.74139885777032e-016 0.427358974435566
   outer loop
      vertex -3.97315168646131 21.8952663124242 4.5196084304302
      vertex -5.49236155750281 21.3460178686138 1.30570532328307
      vertex -3.97315168646131 21.3432663124242 4.5196084304302
   endloop
endfacet
facet normal -0.904082024469783 -1.74139885777032e-016 0.427358974435566
   outer loop
      vertex -5.49236155750281 21.3460178686138 1.30570532328307
      vertex -3.97315168646131 21.8952663124242 4.5196084304302
      vertex -5.49236155750281 21.8952663124242 1.30570532328307
   endloop
endfacet
facet normal 0.0 -1.0 0.0
   outer loop
      vertex -37.1432756551076 21.8952663124242 1.45668270177169
      vertex -39.6813736062622 21.8952663124242 3.86689217315482
      vertex -38.0038543146383 21.8952663124242 0.960048700962002
   endloop
endfacet
facet normal 0.0 -1.0 0.0
   outer loop
      vertex -39.6813736062622 21.8952663124242 3.86689217315482
      vertex -37.1432756551076 21.8952663124242 1.45668270177169
      vertex -38.8207949467315 21.8952663124242 4.36352617396449
   endloop
endfacet
facet normal -0.499832931571729 0.0 0.866121839302307
   outer loop
      vertex -38.9916354057105 21.3211863124242 4.65956239569355
      vertex -39.8330900950295 21.8952663124242 4.17396470601297
      vertex -39.8330900950295 21.3211863124242 4.17396470601297
   endloop
endfacet
facet normal -0.499832931571729 0.0 0.866121839302307
   outer loop
      vertex -39.8330900950295 21.8952663124242 4.17396470601297
      vertex -38.9916354057105 21.3211863124242 4.65956239569355
      vertex -38.9916354057105 21.8952663124242 4.65956239569355
   endloop
endfacet
facet normal 0.866121839302298 0.0 0.499832931571744
   outer loop
      vertex -41.1294916607489 21.8952663124242 7.08302014580362
      vertex -42.10068704011 21.3211863124242 8.76592952444155
      vertex -41.1294916607489 21.3211863124242 7.08302014580362
   endloop
endfacet
facet normal 0.866121839302298 0.0 0.499832931571744
   outer loop
      vertex -42.10068704011 21.3211863124242 8.76592952444155
      vertex -41.1294916607489 21.8952663124242 7.08302014580362
      vertex -42.10068704011 21.8952663124242 8.76592952444155
   endloop
endfacet
facet normal 0.0 -1.0 0.0
   outer loop
      vertex -40.5748965246069 21.8952663124242 7.40307316854763
      vertex -42.10068704011 21.8952663124242 8.76592952444155
      vertex -41.1294916607489 21.8952663124242 7.08302014580362
   endloop
endfacet
facet normal 0.0 -1.0 0.0
   outer loop
      vertex -42.10068704011 21.8952663124242 8.76592952444155
      vertex -40.5748965246069 21.8952663124242 7.40307316854763
      vertex -41.546091903968 21.8952663124242 9.08598254718558
   endloop
endfacet
facet normal 0.499832931571749 0.0 -0.866121839302296
   outer loop
      vertex -41.546091903968 21.8952663124242 9.08598254718558
      vertex -42.10068704011 21.3211863124242 8.76592952444155
      vertex -42.10068704011 21.8952663124242 8.76592952444155
   endloop
endfacet
facet normal 0.499832931571749 0.0 -0.866121839302296
   outer loop
      vertex -42.10068704011 21.3211863124242 8.76592952444155
      vertex -41.546091903968 21.8952663124242 9.08598254718558
      vertex -41.546091903968 21.3211863124242 9.08598254718558
   endloop
endfacet
facet normal 0.0 1.0 0.0
   outer loop
      vertex -24.8879383742887 21.3211863124242 0.794282701771698
      vertex -21.8629783742886 21.3211863124242 1.45668270177169
      vertex -21.8629783742886 21.3211863124242 0.794282701771687
   endloop
endfacet
facet normal 0.0 1.0 0.0
   outer loop
      vertex -21.8629783742886 21.3211863124242 1.45668270177169
      vertex -24.8879383742887 21.3211863124242 0.794282701771698
      vertex -24.8879383742887 21.3211863124242 1.45668270177169
   endloop
endfacet
facet normal -1.0 0.0 8.51439155358662e-014
   outer loop
      vertex -21.8629783742886 21.8952663124242 1.45668270177169
      vertex -21.8629783742886 21.3211863124242 0.794282701771687
      vertex -21.8629783742886 21.3211863124242 1.45668270177169
   endloop
endfacet
facet normal -1.0 0.0 8.51439155358662e-014
   outer loop
      vertex -21.8629783742886 21.3211863124242 0.794282701771687
      vertex -21.8629783742886 21.8952663124242 1.45668270177169
      vertex -21.8629783742886 21.8952663124242 0.794282701771687
   endloop
endfacet
facet normal 0.0 1.0 0.0
   outer loop
      vertex -4.14518511430002 21.3432663124242 4.98232872440386
      vertex -2.62740807494211 21.3432663124242 7.36654199565244
      vertex -3.8257910166953 21.3432663124242 4.83135134591526
   endloop
endfacet
facet normal 0.0 1.0 0.0
   outer loop
      vertex -2.62740807494211 21.3432663124242 7.36654199565244
      vertex -4.14518511430002 21.3432663124242 4.98232872440386
      vertex -2.94680217254674 21.3432663124242 7.51751937414104
   endloop
endfacet
facet normal 0.0 -1.0 0.0
   outer loop
      vertex -10.6710436944984 21.8952663124242 1.45668270177169
      vertex -13.8505636944985 21.8952663124242 0.750122701771679
      vertex -10.6710436944984 21.8952663124242 0.750122701771679
   endloop
endfacet
facet normal 0.0 -1.0 0.0
   outer loop
      vertex -13.8505636944985 21.8952663124242 0.750122701771679
      vertex -10.6710436944984 21.8952663124242 1.45668270177169
      vertex -13.8505636944985 21.8952663124242 1.45668270177168
   endloop
endfacet
facet normal 1.0 0.0 0.0
   outer loop
      vertex -13.8505636944985 21.8952663124242 0.750122701771679
      vertex -13.8505636944985 21.2328663124242 1.45668270177168
      vertex -13.8505636944985 21.2328663124242 0.750122701771679
   endloop
endfacet
facet normal 1.0 0.0 0.0
   outer loop
      vertex -13.8505636944985 21.2328663124242 1.45668270177168
      vertex -13.8505636944985 21.8952663124242 0.750122701771679
      vertex -13.8505636944985 21.8952663124242 1.45668270177168
   endloop
endfacet
facet normal 1.0 0.0 -5.10863493215206e-014
   outer loop
      vertex -24.8879383742887 21.8952663124242 0.794282701771698
      vertex -24.8879383742887 21.3211863124242 1.45668270177169
      vertex -24.8879383742887 21.3211863124242 0.794282701771698
   endloop
endfacet
facet normal 1.0 0.0 -5.10863493215206e-014
   outer loop
      vertex -24.8879383742887 21.3211863124242 1.45668270177169
      vertex -24.8879383742887 21.8952663124242 0.794282701771698
      vertex -24.8879383742887 21.8952663124242 1.45668270177169
   endloop
endfacet
facet normal 0.0 0.0 1.0
   outer loop
      vertex -29.113175122992 21.3874263124242 0.882602701771685
      vertex -32.491415122992 21.8952663124242 0.882602701771685
      vertex -32.491415122992 21.3874263124242 0.882602701771685
   endloop
endfacet
facet normal 0.0 0.0 1.0
   outer loop
      vertex -32.491415122992 21.8952663124242 0.882602701771685
      vertex -29.113175122992 21.3874263124242 0.882602701771685
      vertex -29.113175122992 21.8952663124242 0.882602701771685
   endloop
endfacet
facet normal 0.499832931571757 0.0 -0.866121839302291
   outer loop
      vertex -38.8207949467315 21.8952663124242 4.36352617396449
      vertex -39.6813736062622 21.3653463124242 3.86689217315482
      vertex -39.6813736062622 21.8952663124242 3.86689217315482
   endloop
endfacet
facet normal 0.499832931571757 0.0 -0.866121839302291
   outer loop
      vertex -39.6813736062622 21.3653463124242 3.86689217315482
      vertex -38.8207949467315 21.8952663124242 4.36352617396449
      vertex -38.8207949467315 21.3653463124242 4.36352617396449
   endloop
endfacet
facet normal 0.00881108637626463 0.999958945060129 0.00211493524806647
   outer loop
      vertex -39.6813736062622 21.3653463124242 3.86689217315482
      vertex -37.1432756551076 21.3480796402293 1.45668270177169
      vertex -38.0038543146383 21.3653463124242 0.960048700962002
   endloop
endfacet
facet normal 0.00881108637626463 0.999958945060129 0.00211493524806647
   outer loop
      vertex -37.1432756551076 21.3480796402293 1.45668270177169
      vertex -39.6813736062622 21.3653463124242 3.86689217315482
      vertex -38.8207949467315 21.3653463124242 4.36352617396449
   endloop
endfacet
facet normal -0.499832931571759 -8.32751218438305e-018 0.86612183930229
   outer loop
      vertex -37.1432756551076 21.3480796402293 1.45668270177169
      vertex -38.0038543146383 21.8952663124242 0.960048700962002
      vertex -38.0038543146383 21.3653463124242 0.960048700962002
   endloop
endfacet
facet normal -0.499832931571759 -8.32751218438305e-018 0.86612183930229
   outer loop
      vertex -38.0038543146383 21.8952663124242 0.960048700962002
      vertex -37.1432756551076 21.3480796402293 1.45668270177169
      vertex -37.1432756551076 21.8952663124242 1.45668270177169
   endloop
endfacet
facet normal -1.0 0.0 -3.19289683259495e-014
   outer loop
      vertex -10.6710436944984 21.8952663124242 1.45668270177169
      vertex -10.6710436944984 21.2328663124242 0.750122701771679
      vertex -10.6710436944984 21.2328663124242 1.45668270177169
   endloop
endfacet
facet normal -1.0 0.0 -3.19289683259495e-014
   outer loop
      vertex -10.6710436944984 21.2328663124242 0.750122701771679
      vertex -10.6710436944984 21.8952663124242 1.45668270177169
      vertex -10.6710436944984 21.8952663124242 0.750122701771679
   endloop
endfacet
facet normal -2.74510476376673e-015 0.0 1.0
   outer loop
      vertex -5.81175565510742 21.3460178686138 0.860522701771664
      vertex -9.92083960668448 21.8952663124242 0.860522701771653
      vertex -9.92083960668448 21.3460178686138 0.860522701771653
   endloop
endfacet
facet normal -2.74510476376673e-015 0.0 1.0
   outer loop
      vertex -9.92083960668448 21.8952663124242 0.860522701771653
      vertex -5.81175565510742 21.3460178686138 0.860522701771664
      vertex -5.81175565510742 21.8952663124242 0.860522701771664
   endloop
endfacet
facet normal 0.0 -1.0 0.0
   outer loop
      vertex -38.9916354057105 21.8952663124242 4.65956239569355
      vertex -41.2015926750383 21.8952663124242 6.5453370122755
      vertex -39.8330900950295 21.8952663124242 4.17396470601297
   endloop
endfacet
facet normal 0.0 -1.0 0.0
   outer loop
      vertex -41.2015926750383 21.8952663124242 6.5453370122755
      vertex -38.9916354057105 21.8952663124242 4.65956239569355
      vertex -40.3601379857195 21.8952663124242 7.03093470195611
   endloop
endfacet
facet normal -1.0 0.0 5.47353742730575e-014
   outer loop
      vertex -32.8594424087863 21.8952663124242 1.45668270177168
      vertex -32.8594424087863 21.3480796402293 0.838442701771683
      vertex -32.8594424087863 21.3480796402293 1.45668270177168
   endloop
endfacet
facet normal -1.0 0.0 5.47353742730575e-014
   outer loop
      vertex -32.8594424087863 21.3480796402293 0.838442701771683
      vertex -32.8594424087863 21.8952663124242 1.45668270177168
      vertex -32.8594424087863 21.8952663124242 0.838442701771683
   endloop
endfacet
facet normal 0.000330785252671363 0.999999700444919 0.000699779386392481
   outer loop
      vertex -5.81175565510746 21.3460178686138 1.45668270177168
      vertex -3.97315168646131 21.3432663124242 4.5196084304302
      vertex -5.49236155750281 21.3460178686138 1.30570532328307
   endloop
endfacet
facet normal 0.000330785252671363 0.999999700444919 0.000699779386392481
   outer loop
      vertex -3.97315168646131 21.3432663124242 4.5196084304302
      vertex -5.81175565510746 21.3460178686138 1.45668270177168
      vertex -4.29254578406596 21.3432663124242 4.67058580891879
   endloop
endfacet
facet normal -0.427358974435581 0.0 -0.904082024469776
   outer loop
      vertex -3.97315168646131 21.8952663124242 4.5196084304302
      vertex -4.29254578406596 21.3432663124242 4.67058580891879
      vertex -4.29254578406596 21.8952663124242 4.67058580891879
   endloop
endfacet
facet normal -0.427358974435581 0.0 -0.904082024469776
   outer loop
      vertex -4.29254578406596 21.3432663124242 4.67058580891879
      vertex -3.97315168646131 21.8952663124242 4.5196084304302
      vertex -3.97315168646131 21.3432663124242 4.5196084304302
   endloop
endfacet
facet normal 0.0 -1.0 0.0
   outer loop
      vertex -3.97315168646131 21.8952663124242 4.5196084304302
      vertex -5.81175565510746 21.8952663124242 1.45668270177168
      vertex -5.49236155750281 21.8952663124242 1.30570532328307
   endloop
endfacet
facet normal 0.0 -1.0 0.0
   outer loop
      vertex -5.81175565510746 21.8952663124242 1.45668270177168
      vertex -3.97315168646131 21.8952663124242 4.5196084304302
      vertex -4.29254578406596 21.8952663124242 4.67058580891879
   endloop
endfacet
facet normal 0.0 -1.0 0.0
   outer loop
      vertex -29.113175122992 21.8952663124242 1.45668270177168
      vertex -32.491415122992 21.8952663124242 0.882602701771685
      vertex -29.113175122992 21.8952663124242 0.882602701771685
   endloop
endfacet
facet normal 0.0 -1.0 0.0
   outer loop
      vertex -32.491415122992 21.8952663124242 0.882602701771685
      vertex -29.113175122992 21.8952663124242 1.45668270177168
      vertex -32.491415122992 21.8952663124242 1.45668270177168
   endloop
endfacet
facet normal 0.0 -1.0 0.0
   outer loop
      vertex -1.15882608482668 42.3905326248485 11.3
      vertex -37.1432756551076 42.3905326248485 1.45668270177169
      vertex -5.81175565510746 42.3905326248485 1.45668270177168
   endloop
endfacet
facet normal 0.0 -1.0 0.0
   outer loop
      vertex -37.1432756551076 42.3905326248485 1.45668270177169
      vertex -1.15882608482668 42.3905326248485 11.3
      vertex -42.8237860848268 42.3905326248485 11.3
   endloop
endfacet
facet normal -5.26624883911074e-015 0.0 1.0
   outer loop
      vertex -32.8594424087863 21.3480796402293 0.838442701771683
      vertex -37.1432756551076 21.8952663124242 0.83844270177166
      vertex -37.1432756551076 21.3480796402293 0.83844270177166
   endloop
endfacet
facet normal -5.26624883911074e-015 0.0 1.0
   outer loop
      vertex -37.1432756551076 21.8952663124242 0.83844270177166
      vertex -32.8594424087863 21.3480796402293 0.838442701771683
      vertex -32.8594424087863 21.8952663124242 0.838442701771683
   endloop
endfacet
facet normal 1.0 0.0 0.0
   outer loop
      vertex -37.1432756551076 21.8952663124242 0.83844270177166
      vertex -37.1432756551076 21.3480796402293 1.45668270177169
      vertex -37.1432756551076 21.3480796402293 0.83844270177166
   endloop
endfacet
facet normal 1.0 0.0 0.0
   outer loop
      vertex -37.1432756551076 21.3480796402293 1.45668270177169
      vertex -37.1432756551076 21.8952663124242 0.83844270177166
      vertex -37.1432756551076 21.8952663124242 1.45668270177169
   endloop
endfacet
facet normal 0.427358974435533 0.0 0.904082024469798
   outer loop
      vertex -3.8257910166953 21.3432663124242 4.83135134591526
      vertex -4.14518511430002 21.8952663124242 4.98232872440386
      vertex -4.14518511430002 21.3432663124242 4.98232872440386
   endloop
endfacet
facet normal 0.427358974435533 0.0 0.904082024469798
   outer loop
      vertex -4.14518511430002 21.8952663124242 4.98232872440386
      vertex -3.8257910166953 21.3432663124242 4.83135134591526
      vertex -3.8257910166953 21.8952663124242 4.83135134591526
   endloop
endfacet
facet normal 0.0 1.0 0.0
   outer loop
      vertex -28.6666335779592 21.3432663124242 1.45668270177167
      vertex -25.3987935779592 21.3432663124242 0.816362701771662
      vertex -28.6666335779592 21.3432663124242 0.816362701771662
   endloop
endfacet
facet normal 0.0 1.0 0.0
   outer loop
      vertex -25.3987935779592 21.3432663124242 0.816362701771662
      vertex -28.6666335779592 21.3432663124242 1.45668270177167
      vertex -25.3987935779592 21.3432663124242 1.45668270177167
   endloop
endfacet
facet normal -1.0 0.0 0.0
   outer loop
      vertex -25.3987935779592 21.8952663124242 1.45668270177167
      vertex -25.3987935779592 21.3432663124242 0.816362701771662
      vertex -25.3987935779592 21.3432663124242 1.45668270177167
   endloop
endfacet
facet normal -1.0 0.0 0.0
   outer loop
      vertex -25.3987935779592 21.3432663124242 0.816362701771662
      vertex -25.3987935779592 21.8952663124242 1.45668270177167
      vertex -25.3987935779592 21.8952663124242 0.816362701771662
   endloop
endfacet
facet normal 3.72893060741016e-015 0.0 1.0
   outer loop
      vertex -21.8629783742886 21.3211863124242 0.794282701771687
      vertex -24.8879383742887 21.8952663124242 0.794282701771698
      vertex -24.8879383742887 21.3211863124242 0.794282701771698
   endloop
endfacet
facet normal 3.72893060741016e-015 0.0 1.0
   outer loop
      vertex -24.8879383742887 21.8952663124242 0.794282701771698
      vertex -21.8629783742886 21.3211863124242 0.794282701771687
      vertex -21.8629783742886 21.8952663124242 0.794282701771687
   endloop
endfacet
facet normal 0.0 -1.0 0.0
   outer loop
      vertex -5.81175565510742 21.8952663124242 0.860522701771664
      vertex -9.92083960668448 21.8952663124242 1.05924270177168
      vertex -9.92083960668448 21.8952663124242 0.860522701771653
   endloop
endfacet
facet normal 0.0 -1.0 0.0
   outer loop
      vertex -9.92083960668448 21.8952663124242 1.05924270177168
      vertex -5.81175565510742 21.8952663124242 0.860522701771664
      vertex -5.81175565510746 21.8952663124242 1.05924270177168
   endloop
endfacet
facet normal 1.0 0.0 0.0
   outer loop
      vertex -9.92083960668448 21.8952663124242 0.860522701771653
      vertex -9.92083960668448 21.3460178686138 1.05924270177168
      vertex -9.92083960668448 21.3460178686138 0.860522701771653
   endloop
endfacet
facet normal 1.0 0.0 0.0
   outer loop
      vertex -9.92083960668448 21.3460178686138 1.05924270177168
      vertex -9.92083960668448 21.8952663124242 0.860522701771653
      vertex -9.92083960668448 21.8952663124242 1.05924270177168
   endloop
endfacet
facet normal 0.0 1.0 0.0
   outer loop
      vertex -9.92083960668448 21.3460178686138 1.05924270177168
      vertex -5.81175565510742 21.3460178686138 0.860522701771664
      vertex -9.92083960668448 21.3460178686138 0.860522701771653
   endloop
endfacet
facet normal 0.0 1.0 0.0
   outer loop
      vertex -5.81175565510742 21.3460178686138 0.860522701771664
      vertex -9.92083960668448 21.3460178686138 1.05924270177168
      vertex -5.81175565510746 21.3460178686138 1.05924270177168
   endloop
endfacet
facet normal -1.0 0.0 -2.27050441428962e-013
   outer loop
      vertex -5.81175565510746 21.8952663124242 1.05924270177168
      vertex -5.81175565510742 21.3460178686138 0.860522701771664
      vertex -5.81175565510746 21.3460178686138 1.05924270177168
   endloop
endfacet
facet normal -1.0 0.0 -2.27050441428962e-013
   outer loop
      vertex -5.81175565510742 21.3460178686138 0.860522701771664
      vertex -5.81175565510746 21.8952663124242 1.05924270177168
      vertex -5.81175565510742 21.8952663124242 0.860522701771664
   endloop
endfacet
facet normal 0.0 -1.0 0.0
   outer loop
      vertex -18.577092634698 21.8952663124242 1.45668270177167
      vertex -21.403332634698 21.8952663124242 0.728042701771698
      vertex -18.577092634698 21.8952663124242 0.728042701771687
   endloop
endfacet
facet normal 0.0 -1.0 0.0
   outer loop
      vertex -21.403332634698 21.8952663124242 0.728042701771698
      vertex -18.577092634698 21.8952663124242 1.45668270177167
      vertex -21.403332634698 21.8952663124242 1.45668270177169
   endloop
endfacet
facet normal 1.0 0.0 -4.64421357468368e-014
   outer loop
      vertex -21.403332634698 21.8952663124242 0.728042701771698
      vertex -21.403332634698 21.2770263124242 1.45668270177169
      vertex -21.403332634698 21.2770263124242 0.728042701771698
   endloop
endfacet
facet normal 1.0 0.0 -4.64421357468368e-014
   outer loop
      vertex -21.403332634698 21.2770263124242 1.45668270177169
      vertex -21.403332634698 21.8952663124242 0.728042701771698
      vertex -21.403332634698 21.8952663124242 1.45668270177169
   endloop
endfacet
facet normal 0.0 1.0 0.0
   outer loop
      vertex -21.403332634698 21.2770263124242 0.728042701771698
      vertex -18.577092634698 21.2770263124242 1.45668270177167
      vertex -18.577092634698 21.2770263124242 0.728042701771687
   endloop
endfacet
facet normal 0.0 1.0 0.0
   outer loop
      vertex -18.577092634698 21.2770263124242 1.45668270177167
      vertex -21.403332634698 21.2770263124242 0.728042701771698
      vertex -21.403332634698 21.2770263124242 1.45668270177169
   endloop
endfacet
facet normal -1.0 0.0 0.0
   outer loop
      vertex -18.577092634698 21.8952663124242 1.45668270177167
      vertex -18.577092634698 21.2770263124242 0.728042701771687
      vertex -18.577092634698 21.2770263124242 1.45668270177167
   endloop
endfacet
facet normal -1.0 0.0 0.0
   outer loop
      vertex -18.577092634698 21.2770263124242 0.728042701771687
      vertex -18.577092634698 21.8952663124242 1.45668270177167
      vertex -18.577092634698 21.8952663124242 0.728042701771687
   endloop
endfacet
facet normal 1.57673917659014e-015 0.0 1.0
   outer loop
      vertex -14.4004143682716 21.2770263124242 0.705962701771678
      vertex -17.9773743682715 21.8952663124242 0.705962701771683
      vertex -17.9773743682715 21.2770263124242 0.705962701771683
   endloop
endfacet
facet normal 1.57673917659014e-015 0.0 1.0
   outer loop
      vertex -17.9773743682715 21.8952663124242 0.705962701771683
      vertex -14.4004143682716 21.2770263124242 0.705962701771678
      vertex -14.4004143682716 21.8952663124242 0.705962701771678
   endloop
endfacet
facet normal 0.0 -1.0 0.0
   outer loop
      vertex -14.4004143682716 21.8952663124242 1.45668270177168
      vertex -17.9773743682715 21.8952663124242 0.705962701771683
      vertex -14.4004143682716 21.8952663124242 0.705962701771678
   endloop
endfacet
facet normal 0.0 -1.0 0.0
   outer loop
      vertex -17.9773743682715 21.8952663124242 0.705962701771683
      vertex -14.4004143682716 21.8952663124242 1.45668270177168
      vertex -17.9773743682715 21.8952663124242 1.45668270177169
   endloop
endfacet
facet normal 1.0 0.0 0.0
   outer loop
      vertex -17.9773743682715 21.8952663124242 0.705962701771683
      vertex -17.9773743682715 21.2770263124242 1.45668270177169
      vertex -17.9773743682715 21.2770263124242 0.705962701771683
   endloop
endfacet
facet normal 1.0 0.0 0.0
   outer loop
      vertex -17.9773743682715 21.2770263124242 1.45668270177169
      vertex -17.9773743682715 21.8952663124242 0.705962701771683
      vertex -17.9773743682715 21.8952663124242 1.45668270177169
   endloop
endfacet
facet normal 0.0 1.0 0.0
   outer loop
      vertex -17.9773743682715 21.2770263124242 0.705962701771683
      vertex -14.4004143682716 21.2770263124242 1.45668270177168
      vertex -14.4004143682716 21.2770263124242 0.705962701771678
   endloop
endfacet
facet normal 0.0 1.0 0.0
   outer loop
      vertex -14.4004143682716 21.2770263124242 1.45668270177168
      vertex -17.9773743682715 21.2770263124242 0.705962701771683
      vertex -17.9773743682715 21.2770263124242 1.45668270177169
   endloop
endfacet
facet normal -1.0 0.0 0.0
   outer loop
      vertex -14.4004143682716 21.8952663124242 1.45668270177168
      vertex -14.4004143682716 21.2770263124242 0.705962701771678
      vertex -14.4004143682716 21.2770263124242 1.45668270177168
   endloop
endfacet
facet normal -1.0 0.0 0.0
   outer loop
      vertex -14.4004143682716 21.2770263124242 0.705962701771678
      vertex -14.4004143682716 21.8952663124242 1.45668270177168
      vertex -14.4004143682716 21.8952663124242 0.705962701771678
   endloop
endfacet
facet normal 0.0 0.0 1.0
   outer loop
      vertex -10.6710436944984 21.2328663124242 0.750122701771679
      vertex -13.8505636944985 21.8952663124242 0.750122701771679
      vertex -13.8505636944985 21.2328663124242 0.750122701771679
   endloop
endfacet
facet normal 0.0 0.0 1.0
   outer loop
      vertex -13.8505636944985 21.8952663124242 0.750122701771679
      vertex -10.6710436944984 21.2328663124242 0.750122701771679
      vertex -10.6710436944984 21.8952663124242 0.750122701771679
   endloop
endfacet
facet normal 0.427358974435656 0.0 0.90408202446974
   outer loop
      vertex -2.51155745057114 21.3432663124242 7.66329127343436
      vertex -2.81098941707544 21.8952663124242 7.80483256576741
      vertex -2.81098941707544 21.3432663124242 7.80483256576741
   endloop
endfacet
facet normal 0.427358974435656 0.0 0.90408202446974
   outer loop
      vertex -2.81098941707544 21.8952663124242 7.80483256576741
      vertex -2.51155745057114 21.3432663124242 7.66329127343436
      vertex -2.51155745057114 21.8952663124242 7.66329127343436
   endloop
endfacet
facet normal 0.0 1.0 0.0
   outer loop
      vertex -2.81098941707544 21.3432663124242 7.80483256576741
      vertex -1.80385098890582 21.3432663124242 9.16045110595629
      vertex -2.51155745057114 21.3432663124242 7.66329127343436
   endloop
endfacet
facet normal 0.0 1.0 0.0
   outer loop
      vertex -1.80385098890582 21.3432663124242 9.16045110595629
      vertex -2.81098941707544 21.3432663124242 7.80483256576741
      vertex -2.10328295541022 21.3432663124242 9.30199239828938
   endloop
endfacet
facet normal -0.427358974435635 0.0 -0.904082024469751
   outer loop
      vertex -1.80385098890582 21.8952663124242 9.16045110595629
      vertex -2.10328295541022 21.3432663124242 9.30199239828938
      vertex -2.10328295541022 21.8952663124242 9.30199239828938
   endloop
endfacet
facet normal -0.427358974435635 0.0 -0.904082024469751
   outer loop
      vertex -2.10328295541022 21.3432663124242 9.30199239828938
      vertex -1.80385098890582 21.8952663124242 9.16045110595629
      vertex -1.80385098890582 21.3432663124242 9.16045110595629
   endloop
endfacet
facet normal -0.904082024469785 0.0 0.427358974435562
   outer loop
      vertex -0.839431987222027 21.8952663124242 11.1490226215114
      vertex -1.66867128882864 21.3511782011882 9.39475889613487
      vertex -0.839431987222027 21.3511782011882 11.1490226215114
   endloop
endfacet
facet normal -0.904082024469785 0.0 0.427358974435562
   outer loop
      vertex -1.66867128882864 21.3511782011882 9.39475889613487
      vertex -0.839431987222027 21.8952663124242 11.1490226215114
      vertex -1.66867128882864 21.8952663124242 9.39475889613487
   endloop
endfacet
facet normal 0.0 -1.0 0.0
   outer loop
      vertex -0.839431987222027 21.8952663124242 11.1490226215114
      vertex -1.98806538643336 21.8952663124242 9.54573627462348
      vertex -1.66867128882864 21.8952663124242 9.39475889613487
   endloop
endfacet
facet normal 0.0 -1.0 0.0
   outer loop
      vertex -1.98806538643336 21.8952663124242 9.54573627462348
      vertex -0.839431987222027 21.8952663124242 11.1490226215114
      vertex -1.15882608482668 21.8952663124242 11.3
   endloop
endfacet
facet normal 0.0 1.0 0.0
   outer loop
      vertex -13.8505636944985 21.2328663124242 1.45668270177168
      vertex -10.6710436944984 21.2328663124242 0.750122701771679
      vertex -13.8505636944985 21.2328663124242 0.750122701771679
   endloop
endfacet
facet normal 0.0 1.0 0.0
   outer loop
      vertex -10.6710436944984 21.2328663124242 0.750122701771679
      vertex -13.8505636944985 21.2328663124242 1.45668270177168
      vertex -10.6710436944984 21.2328663124242 1.45668270177169
   endloop
endfacet
facet normal -0.427358974435624 0.0 -0.904082024469756
   outer loop
      vertex -2.62740807494211 21.8952663124242 7.36654199565244
      vertex -2.94680217254674 21.3432663124242 7.51751937414104
      vertex -2.94680217254674 21.8952663124242 7.51751937414104
   endloop
endfacet
facet normal -0.427358974435624 0.0 -0.904082024469756
   outer loop
      vertex -2.94680217254674 21.3432663124242 7.51751937414104
      vertex -2.62740807494211 21.8952663124242 7.36654199565244
      vertex -2.62740807494211 21.3432663124242 7.36654199565244
   endloop
endfacet
facet normal -0.87987933114884 0.0 -0.475197182879981
   outer loop
      vertex -44.3366400000001 43.7594926248485 11.3
      vertex -38.24308534885 0.0 0.0171200000000423
      vertex -44.3366400000001 0.0 11.3
   endloop
endfacet
facet normal -0.87987933114884 0.0 -0.475197182879981
   outer loop
      vertex -38.24308534885 0.0 0.0171200000000423
      vertex -44.3366400000001 43.7594926248485 11.3
      vertex -38.24308534885 43.7594926248485 0.0171200000000423
   endloop
endfacet
facet normal 0.0 0.0 1.0
   outer loop
      vertex -5.81175565510746 21.3460178686138 1.05924270177168
      vertex -9.92083960668448 21.8952663124242 1.05924270177168
      vertex -9.92083960668448 21.3460178686138 1.05924270177168
   endloop
endfacet
facet normal 0.0 0.0 1.0
   outer loop
      vertex -9.92083960668448 21.8952663124242 1.05924270177168
      vertex -5.81175565510746 21.3460178686138 1.05924270177168
      vertex -5.81175565510746 21.8952663124242 1.05924270177168
   endloop
endfacet
facet normal 0.0 -1.0 0.0
   outer loop
      vertex -5.81175565510746 21.8952663124242 1.45668270177168
      vertex -9.92083960668448 21.8952663124242 1.05924270177168
      vertex -5.81175565510746 21.8952663124242 1.05924270177168
   endloop
endfacet
facet normal 0.0 -1.0 0.0
   outer loop
      vertex -9.92083960668448 21.8952663124242 1.05924270177168
      vertex -5.81175565510746 21.8952663124242 1.45668270177168
      vertex -9.92083960668448 21.8952663124242 1.45668270177169
   endloop
endfacet
facet normal 0.0 1.0 0.0
   outer loop
      vertex -38.24308534885 43.7594926248485 0.0171200000000423
      vertex 0.0 43.7594926248485 11.3
      vertex -5.20522067788983 43.7594926248485 0.0171200000000085
   endloop
endfacet
facet normal 0.0 1.0 0.0
   outer loop
      vertex 0.0 43.7594926248485 11.3
      vertex -38.24308534885 43.7594926248485 0.0171200000000423
      vertex -44.3366400000001 43.7594926248485 11.3
   endloop
endfacet
facet normal 1.0 0.0 0.0
   outer loop
      vertex -32.491415122992 21.8952663124242 0.882602701771685
      vertex -32.491415122992 21.3874263124242 1.45668270177168
      vertex -32.491415122992 21.3874263124242 0.882602701771685
   endloop
endfacet
facet normal 1.0 0.0 0.0
   outer loop
      vertex -32.491415122992 21.3874263124242 1.45668270177168
      vertex -32.491415122992 21.8952663124242 0.882602701771685
      vertex -32.491415122992 21.8952663124242 1.45668270177168
   endloop
endfacet
facet normal 0.866121839302294 0.0 0.499832931571751
   outer loop
      vertex -38.0038543146383 21.8952663124242 0.960048700962002
      vertex -39.6813736062622 21.3653463124242 3.86689217315482
      vertex -38.0038543146383 21.3653463124242 0.960048700962002
   endloop
endfacet
facet normal 0.866121839302294 0.0 0.499832931571751
   outer loop
      vertex -39.6813736062622 21.3653463124242 3.86689217315482
      vertex -38.0038543146383 21.8952663124242 0.960048700962002
      vertex -39.6813736062622 21.8952663124242 3.86689217315482
   endloop
endfacet
facet normal 0.499832931571824 0.0 -0.866121839302253
   outer loop
      vertex -40.3601379857195 21.8952663124242 7.03093470195611
      vertex -41.2015926750383 21.3211863124242 6.5453370122755
      vertex -41.2015926750383 21.8952663124242 6.5453370122755
   endloop
endfacet
facet normal 0.499832931571824 0.0 -0.866121839302253
   outer loop
      vertex -41.2015926750383 21.3211863124242 6.5453370122755
      vertex -40.3601379857195 21.8952663124242 7.03093470195611
      vertex -40.3601379857195 21.3211863124242 7.03093470195611
   endloop
endfacet
facet normal 0.0 1.0 0.0
   outer loop
      vertex -41.2015926750383 21.3211863124242 6.5453370122755
      vertex -38.9916354057105 21.3211863124242 4.65956239569355
      vertex -39.8330900950295 21.3211863124242 4.17396470601297
   endloop
endfacet
facet normal 0.0 1.0 0.0
   outer loop
      vertex -38.9916354057105 21.3211863124242 4.65956239569355
      vertex -41.2015926750383 21.3211863124242 6.5453370122755
      vertex -40.3601379857195 21.3211863124242 7.03093470195611
   endloop
endfacet
facet normal -1.0 0.0 0.0
   outer loop
      vertex -5.81175565510746 21.8952663124242 1.45668270177168
      vertex -5.81175565510746 21.3460178686138 1.05924270177168
      vertex -5.81175565510746 21.3460178686138 1.45668270177168
   endloop
endfacet
facet normal -1.0 0.0 0.0
   outer loop
      vertex -5.81175565510746 21.3460178686138 1.05924270177168
      vertex -5.81175565510746 21.8952663124242 1.45668270177168
      vertex -5.81175565510746 21.8952663124242 1.05924270177168
   endloop
endfacet
facet normal 0.0 0.0 1.0
   outer loop
      vertex -25.3987935779592 21.3432663124242 0.816362701771662
      vertex -28.6666335779592 21.8952663124242 0.816362701771662
      vertex -28.6666335779592 21.3432663124242 0.816362701771662
   endloop
endfacet
facet normal 0.0 0.0 1.0
   outer loop
      vertex -28.6666335779592 21.8952663124242 0.816362701771662
      vertex -25.3987935779592 21.3432663124242 0.816362701771662
      vertex -25.3987935779592 21.8952663124242 0.816362701771662
   endloop
endfacet
facet normal 0.0 -1.0 0.0
   outer loop
      vertex 0.0 0.0 11.3
      vertex -38.24308534885 0.0 0.0171200000000423
      vertex -5.20522067788983 0.0 0.0171200000000085
   endloop
endfacet
facet normal 0.0 -1.0 0.0
   outer loop
      vertex -38.24308534885 0.0 0.0171200000000423
      vertex 0.0 0.0 11.3
      vertex -44.3366400000001 0.0 11.3
   endloop
endfacet
facet normal 0.0 -1.0 0.0
   outer loop
      vertex -1.15882608482668 1.4 11.3
      vertex -37.1432756551076 1.4 1.45668270177169
      vertex -5.81175565510746 1.4 1.45668270177168
   endloop
endfacet
facet normal 0.0 -1.0 0.0
   outer loop
      vertex -37.1432756551076 1.4 1.45668270177169
      vertex -1.15882608482668 1.4 11.3
      vertex -42.8237860848268 1.4 11.3
   endloop
endfacet
facet normal -0.904082024469781 4.23962805166379e-018 0.42735897443557
   outer loop
      vertex -1.15882608482668 42.3905326248485 11.3
      vertex -1.98806538643336 21.8952663124242 9.54573627462348
      vertex -1.15882608482668 21.8952663124242 11.3
   endloop
endfacet
facet normal -0.904082024469781 4.23962805166379e-018 0.42735897443557
   outer loop
      vertex -1.98806538643336 21.8952663124242 9.54573627462348
      vertex -1.15882608482668 42.3905326248485 11.3
      vertex -2.10328295541022 21.8952663124242 9.30199239828938
   endloop
endfacet
facet normal -0.904082024469781 4.23962805166379e-018 0.42735897443557
   outer loop
      vertex -2.10328295541022 21.8952663124242 9.30199239828938
      vertex -1.15882608482668 42.3905326248485 11.3
      vertex -2.81098941707544 21.8952663124242 7.80483256576741
   endloop
endfacet
facet normal -0.904082024469781 4.23962805166379e-018 0.42735897443557
   outer loop
      vertex -2.81098941707544 21.8952663124242 7.80483256576741
      vertex -1.15882608482668 42.3905326248485 11.3
      vertex -2.94680217254674 21.8952663124242 7.51751937414104
   endloop
endfacet
facet normal -0.904082024469781 4.23962805166379e-018 0.42735897443557
   outer loop
      vertex -2.94680217254674 21.8952663124242 7.51751937414104
      vertex -1.15882608482668 42.3905326248485 11.3
      vertex -4.14518511430002 21.8952663124242 4.98232872440386
   endloop
endfacet
facet normal -0.904082024469781 4.23962805166379e-018 0.42735897443557
   outer loop
      vertex -4.14518511430002 21.8952663124242 4.98232872440386
      vertex -1.15882608482668 42.3905326248485 11.3
      vertex -4.29254578406596 21.8952663124242 4.67058580891879
   endloop
endfacet
facet normal -0.904082024469781 4.23962805166379e-018 0.42735897443557
   outer loop
      vertex -4.29254578406596 21.8952663124242 4.67058580891879
      vertex -1.15882608482668 42.3905326248485 11.3
      vertex -5.81175565510746 21.8952663124242 1.45668270177168
   endloop
endfacet
facet normal -0.904082024469781 4.23962805166379e-018 0.42735897443557
   outer loop
      vertex -5.81175565510746 21.8952663124242 1.45668270177168
      vertex -1.15882608482668 42.3905326248485 11.3
      vertex -5.81175565510746 42.3905326248485 1.45668270177168
   endloop
endfacet
facet normal -0.904082024469781 4.23962805166379e-018 0.42735897443557
   outer loop
      vertex -4.14518511430002 21.8952663124242 4.98232872440386
      vertex -4.29254578406596 21.3432663124242 4.67058580891879
      vertex -4.14518511430002 21.3432663124242 4.98232872440386
   endloop
endfacet
facet normal -0.904082024469781 4.23962805166379e-018 0.42735897443557
   outer loop
      vertex -4.29254578406596 21.3432663124242 4.67058580891879
      vertex -4.14518511430002 21.8952663124242 4.98232872440386
      vertex -4.29254578406596 21.8952663124242 4.67058580891879
   endloop
endfacet
facet normal -0.904082024469781 4.23962805166379e-018 0.42735897443557
   outer loop
      vertex -2.81098941707544 21.8952663124242 7.80483256576741
      vertex -2.94680217254674 21.3432663124242 7.51751937414104
      vertex -2.81098941707544 21.3432663124242 7.80483256576741
   endloop
endfacet
facet normal -0.904082024469781 4.23962805166379e-018 0.42735897443557
   outer loop
      vertex -2.94680217254674 21.3432663124242 7.51751937414104
      vertex -2.81098941707544 21.8952663124242 7.80483256576741
      vertex -2.94680217254674 21.8952663124242 7.51751937414104
   endloop
endfacet
facet normal -0.904082024469781 4.23962805166379e-018 0.42735897443557
   outer loop
      vertex -1.15882608482668 21.3511782011882 11.3
      vertex -5.81175565510746 1.4 1.45668270177168
      vertex -1.15882608482668 1.4 11.3
   endloop
endfacet
facet normal -0.904082024469781 4.23962805166379e-018 0.42735897443557
   outer loop
      vertex -5.81175565510746 1.4 1.45668270177168
      vertex -1.15882608482668 21.3511782011882 11.3
      vertex -2.10328295541022 21.3432663124242 9.30199239828938
   endloop
endfacet
facet normal -0.904082024469781 4.23962805166379e-018 0.42735897443557
   outer loop
      vertex -2.10328295541022 21.3432663124242 9.30199239828938
      vertex -1.15882608482668 21.3511782011882 11.3
      vertex -1.98806538643336 21.3511782011882 9.54573627462348
   endloop
endfacet
facet normal -0.904082024469781 4.23962805166379e-018 0.42735897443557
   outer loop
      vertex -2.10328295541022 21.3432663124242 9.30199239828938
      vertex -1.98806538643336 21.3511782011882 9.54573627462348
      vertex -2.10328295541022 21.8952663124242 9.30199239828938
   endloop
endfacet
facet normal -0.904082024469781 4.23962805166379e-018 0.42735897443557
   outer loop
      vertex -2.10328295541022 21.8952663124242 9.30199239828938
      vertex -1.98806538643336 21.3511782011882 9.54573627462348
      vertex -1.98806538643336 21.8952663124242 9.54573627462348
   endloop
endfacet
facet normal -0.904082024469781 4.23962805166379e-018 0.42735897443557
   outer loop
      vertex -5.81175565510746 1.4 1.45668270177168
      vertex -4.29254578406596 21.3432663124242 4.67058580891879
      vertex -5.81175565510746 21.3460178686138 1.45668270177168
   endloop
endfacet
facet normal -0.904082024469781 4.23962805166379e-018 0.42735897443557
   outer loop
      vertex -4.29254578406596 21.3432663124242 4.67058580891879
      vertex -5.81175565510746 1.4 1.45668270177168
      vertex -2.10328295541022 21.3432663124242 9.30199239828938
   endloop
endfacet
facet normal -0.904082024469781 4.23962805166379e-018 0.42735897443557
   outer loop
      vertex -4.29254578406596 21.3432663124242 4.67058580891879
      vertex -2.10328295541022 21.3432663124242 9.30199239828938
      vertex -2.81098941707544 21.3432663124242 7.80483256576741
   endloop
endfacet
facet normal -0.904082024469781 4.23962805166379e-018 0.42735897443557
   outer loop
      vertex -4.29254578406596 21.3432663124242 4.67058580891879
      vertex -2.81098941707544 21.3432663124242 7.80483256576741
      vertex -2.94680217254674 21.3432663124242 7.51751937414104
   endloop
endfacet
facet normal -0.904082024469781 4.23962805166379e-018 0.42735897443557
   outer loop
      vertex -4.29254578406596 21.3432663124242 4.67058580891879
      vertex -2.94680217254674 21.3432663124242 7.51751937414104
      vertex -4.14518511430002 21.3432663124242 4.98232872440386
   endloop
endfacet
facet normal 0.0 1.0 0.0
   outer loop
      vertex -42.10068704011 21.3211863124242 8.76592952444155
      vertex -40.5748965246069 21.3211863124242 7.40307316854763
      vertex -41.1294916607489 21.3211863124242 7.08302014580362
   endloop
endfacet
facet normal 0.0 1.0 0.0
   outer loop
      vertex -40.5748965246069 21.3211863124242 7.40307316854763
      vertex -42.10068704011 21.3211863124242 8.76592952444155
      vertex -41.546091903968 21.3211863124242 9.08598254718558
   endloop
endfacet
facet normal -0.499832931571766 0.0 0.866121839302286
   outer loop
      vertex -40.5748965246069 21.3211863124242 7.40307316854763
      vertex -41.1294916607489 21.8952663124242 7.08302014580362
      vertex -41.1294916607489 21.3211863124242 7.08302014580362
   endloop
endfacet
facet normal -0.499832931571766 0.0 0.866121839302286
   outer loop
      vertex -41.1294916607489 21.8952663124242 7.08302014580362
      vertex -40.5748965246069 21.3211863124242 7.40307316854763
      vertex -40.5748965246069 21.8952663124242 7.40307316854763
   endloop
endfacet
facet normal 0.866121839302285 0.0 0.499832931571767
   outer loop
      vertex -42.5167256438887 21.8952663124242 8.95675352722503
      vertex -43.6078688635104 21.3508565273329 10.8475112437068
      vertex -42.5167256438887 21.3508565273329 8.95675352722503
   endloop
endfacet
facet normal 0.866121839302285 0.0 0.499832931571767
   outer loop
      vertex -43.6078688635104 21.3508565273329 10.8475112437068
      vertex -42.5167256438887 21.8952663124242 8.95675352722503
      vertex -43.6078688635104 21.8952663124242 10.8475112437068
   endloop
endfacet
facet normal 0.499832931571706 0.0 -0.866121839302321
   outer loop
      vertex -42.8237860848268 21.8952663124242 11.3
      vertex -43.6078688635104 21.3508565273329 10.8475112437068
      vertex -43.6078688635104 21.8952663124242 10.8475112437068
   endloop
endfacet
facet normal 0.499832931571706 0.0 -0.866121839302321
   outer loop
      vertex -43.6078688635104 21.3508565273329 10.8475112437068
      vertex -42.8237860848268 21.8952663124242 11.3
      vertex -42.8237860848268 21.3508565273329 11.3
   endloop
endfacet
facet normal 0.0 1.0 0.0
   outer loop
      vertex -43.6078688635104 21.3508565273329 10.8475112437068
      vertex -41.7326428652051 21.3508565273329 9.40924228351829
      vertex -42.5167256438887 21.3508565273329 8.95675352722503
   endloop
endfacet
facet normal 0.0 1.0 0.0
   outer loop
      vertex -41.7326428652051 21.3508565273329 9.40924228351829
      vertex -43.6078688635104 21.3508565273329 10.8475112437068
      vertex -42.8237860848268 21.3508565273329 11.3
   endloop
endfacet
facet normal -0.499832931571751 0.0 0.866121839302294
   outer loop
      vertex -41.7326428652051 21.3508565273329 9.40924228351829
      vertex -42.5167256438887 21.8952663124242 8.95675352722503
      vertex -42.5167256438887 21.3508565273329 8.95675352722503
   endloop
endfacet
facet normal -0.499832931571751 0.0 0.866121839302294
   outer loop
      vertex -42.5167256438887 21.8952663124242 8.95675352722503
      vertex -41.7326428652051 21.3508565273329 9.40924228351829
      vertex -41.7326428652051 21.8952663124242 9.40924228351829
   endloop
endfacet
facet normal 0.0 -1.0 0.0
   outer loop
      vertex -41.7326428652051 21.8952663124242 9.40924228351829
      vertex -43.6078688635104 21.8952663124242 10.8475112437068
      vertex -42.5167256438887 21.8952663124242 8.95675352722503
   endloop
endfacet
facet normal 0.0 -1.0 0.0
   outer loop
      vertex -43.6078688635104 21.8952663124242 10.8475112437068
      vertex -41.7326428652051 21.8952663124242 9.40924228351829
      vertex -42.8237860848268 21.8952663124242 11.3
   endloop
endfacet
facet normal 0.866121839302315 0.0 0.499832931571715
   outer loop
      vertex -39.8330900950295 21.8952663124242 4.17396470601297
      vertex -41.2015926750383 21.3211863124242 6.5453370122755
      vertex -39.8330900950295 21.3211863124242 4.17396470601297
   endloop
endfacet
facet normal 0.866121839302315 0.0 0.499832931571715
   outer loop
      vertex -41.2015926750383 21.3211863124242 6.5453370122755
      vertex -39.8330900950295 21.8952663124242 4.17396470601297
      vertex -41.2015926750383 21.8952663124242 6.5453370122755
   endloop
endfacet
endsolid bottom of one print burger box small skp
